<svg width="1856" height="1016" viewBox="0 0 1856 1016" fill="none" xmlns="http://www.w3.org/2000/svg">
<rect x="46" y="46.9375" width="1764" height="923.059" stroke="#4A3244" stroke-width="12"/>
<rect x="40" y="40.9375" width="1776" height="935.059" stroke="#4A3244" stroke-width="21"/>
<rect x="40" y="40.9375" width="1776" height="935.059" stroke="#F0CD9D" stroke-width="15"/>
<path fill-rule="evenodd" clip-rule="evenodd" d="M112.418 57.4896C112.418 27.1662 87.8002 2.54688 57.4785 2.54688C27.1568 2.54688 2.53906 27.1662 2.53906 57.4896C2.53906 87.813 27.1568 112.432 57.4785 112.432C87.8002 112.432 112.418 87.813 112.418 57.4896Z" fill="#F9E8D5"/>
<mask id="mask0_615_12641" style="mask-type:luminance" maskUnits="userSpaceOnUse" x="0" y="0" width="115" height="115">
<path d="M114.973 57.4864C114.973 89.2354 89.2354 114.973 57.4864 114.973C25.7374 114.973 0 89.2354 0 57.4864C0 25.7374 25.7374 0 57.4864 0C89.2354 0 114.973 25.7374 114.973 57.4864Z" fill="white"/>
</mask>
<g mask="url(#mask0_615_12641)">
<path d="M119.354 57.4856H110.567C110.567 86.8079 86.7962 110.578 57.4739 110.578V119.366C91.6495 119.366 119.354 91.6612 119.354 57.4856ZM57.4739 119.366V110.578C28.1516 110.578 4.38124 86.8079 4.38124 57.4856H-4.40625C-4.40625 91.6612 23.2983 119.366 57.4739 119.366ZM-4.40625 57.4856H4.38124C4.38124 28.1633 28.1516 4.39296 57.4739 4.39296V-4.39453C23.2983 -4.39453 -4.40625 23.31 -4.40625 57.4856ZM57.4739 -4.39453V4.39296C86.7962 4.39296 110.567 28.1633 110.567 57.4856H119.354C119.354 23.31 91.6495 -4.39453 57.4739 -4.39453Z" fill="#4A3244"/>
</g>
<path fill-rule="evenodd" clip-rule="evenodd" d="M102.508 57.4825C102.508 32.6258 82.3274 12.4453 57.4708 12.4453C32.6141 12.4453 12.4336 32.6258 12.4336 57.4825C12.4336 82.3392 32.6141 102.52 57.4708 102.52C82.3274 102.52 102.508 82.3392 102.508 57.4825Z" fill="#FFC212"/>
<mask id="mask1_615_12641" style="mask-type:luminance" maskUnits="userSpaceOnUse" x="12" y="12" width="91" height="91">
<path d="M102.508 57.4825C102.508 82.3559 82.3442 102.52 57.4708 102.52C32.5974 102.52 12.4336 82.3559 12.4336 57.4825C12.4336 32.6091 32.5974 12.4453 57.4708 12.4453C82.3442 12.4453 102.508 32.6091 102.508 57.4825Z" fill="white"/>
</mask>
<g mask="url(#mask1_615_12641)">
<path d="M106.893 57.4856H98.1056C98.1056 79.9323 79.9089 98.129 57.4622 98.129V106.917C84.7622 106.917 106.893 84.7857 106.893 57.4856ZM57.4622 106.917V98.129C35.0154 98.129 16.8187 79.9323 16.8187 57.4856H8.03125C8.03125 84.7857 30.1621 106.917 57.4622 106.917ZM8.03125 57.4856H16.8187C16.8187 35.0389 35.0154 16.8422 57.4622 16.8422V8.05469C30.1621 8.05469 8.03125 30.1855 8.03125 57.4856ZM57.4622 8.05469V16.8422C79.9089 16.8422 98.1056 35.0389 98.1056 57.4856H106.893C106.893 30.1855 84.7622 8.05469 57.4622 8.05469Z" fill="#4A3244"/>
</g>
<path fill-rule="evenodd" clip-rule="evenodd" d="M1853.39 57.4896C1853.39 27.1662 1828.77 2.54688 1798.45 2.54688C1768.13 2.54688 1743.51 27.1662 1743.51 57.4896C1743.51 87.813 1768.13 112.432 1798.45 112.432C1828.77 112.432 1853.39 87.813 1853.39 57.4896Z" fill="#F9E8D5"/>
<mask id="mask2_615_12641" style="mask-type:luminance" maskUnits="userSpaceOnUse" x="1740" y="0" width="116" height="115">
<path d="M1855.95 57.4864C1855.95 89.2354 1830.21 114.973 1798.46 114.973C1766.71 114.973 1740.97 89.2354 1740.97 57.4864C1740.97 25.7374 1766.71 0 1798.46 0C1830.21 0 1855.95 25.7374 1855.95 57.4864Z" fill="white"/>
</mask>
<g mask="url(#mask2_615_12641)">
<path d="M1860.33 57.4856H1851.54C1851.54 86.8079 1827.77 110.578 1798.45 110.578V119.366C1832.62 119.366 1860.33 91.6612 1860.33 57.4856ZM1798.45 119.366V110.578C1769.12 110.578 1745.35 86.8079 1745.35 57.4856H1736.57C1736.57 91.6612 1764.27 119.366 1798.45 119.366ZM1736.57 57.4856H1745.35C1745.35 28.1633 1769.12 4.39296 1798.45 4.39296V-4.39453C1764.27 -4.39453 1736.57 23.31 1736.57 57.4856ZM1798.45 -4.39453V4.39296C1827.77 4.39296 1851.54 28.1633 1851.54 57.4856H1860.33C1860.33 23.31 1832.62 -4.39453 1798.45 -4.39453Z" fill="#4A3244"/>
</g>
<path fill-rule="evenodd" clip-rule="evenodd" d="M1843.48 57.4825C1843.48 32.6258 1823.3 12.4453 1798.44 12.4453C1773.59 12.4453 1753.41 32.6258 1753.41 57.4825C1753.41 82.3392 1773.59 102.52 1798.44 102.52C1823.3 102.52 1843.48 82.3392 1843.48 57.4825Z" fill="#FFC212"/>
<mask id="mask3_615_12641" style="mask-type:luminance" maskUnits="userSpaceOnUse" x="1753" y="12" width="91" height="91">
<path d="M1843.48 57.4825C1843.48 82.3559 1823.32 102.52 1798.44 102.52C1773.57 102.52 1753.41 82.3559 1753.41 57.4825C1753.41 32.6091 1773.57 12.4453 1798.44 12.4453C1823.32 12.4453 1843.48 32.6091 1843.48 57.4825Z" fill="white"/>
</mask>
<g mask="url(#mask3_615_12641)">
<path d="M1847.87 57.4856H1839.08C1839.08 79.9323 1820.88 98.129 1798.43 98.129V106.917C1825.73 106.917 1847.87 84.7857 1847.87 57.4856ZM1798.43 106.917V98.129C1775.99 98.129 1757.79 79.9323 1757.79 57.4856H1749C1749 84.7857 1771.13 106.917 1798.43 106.917ZM1749 57.4856H1757.79C1757.79 35.0389 1775.99 16.8422 1798.43 16.8422V8.05469C1771.13 8.05469 1749 30.1855 1749 57.4856ZM1798.43 8.05469V16.8422C1820.88 16.8422 1839.08 35.0389 1839.08 57.4856H1847.87C1847.87 30.1855 1825.73 8.05469 1798.43 8.05469Z" fill="#4A3244"/>
</g>
<path fill-rule="evenodd" clip-rule="evenodd" d="M112.418 958.462C112.418 928.139 87.8002 903.52 57.4785 903.52C27.1568 903.52 2.53906 928.139 2.53906 958.462C2.53906 988.786 27.1568 1013.4 57.4785 1013.4C87.8002 1013.4 112.418 988.786 112.418 958.462Z" fill="#F9E8D5"/>
<mask id="mask4_615_12641" style="mask-type:luminance" maskUnits="userSpaceOnUse" x="0" y="900" width="115" height="116">
<path d="M114.973 958.459C114.973 990.208 89.2354 1015.95 57.4864 1015.95C25.7374 1015.95 0 990.208 0 958.459C0 926.71 25.7374 900.973 57.4864 900.973C89.2354 900.973 114.973 926.71 114.973 958.459Z" fill="white"/>
</mask>
<g mask="url(#mask4_615_12641)">
<path d="M119.354 958.458H110.567C110.567 987.781 86.7962 1011.55 57.4739 1011.55V1020.34C91.6495 1020.34 119.354 992.634 119.354 958.458ZM57.4739 1020.34V1011.55C28.1516 1011.55 4.38124 987.781 4.38124 958.458H-4.40625C-4.40625 992.634 23.2983 1020.34 57.4739 1020.34ZM-4.40625 958.458H4.38124C4.38124 929.136 28.1516 905.366 57.4739 905.366V896.578C23.2983 896.578 -4.40625 924.283 -4.40625 958.458ZM57.4739 896.578V905.366C86.7962 905.366 110.567 929.136 110.567 958.458H119.354C119.354 924.283 91.6495 896.578 57.4739 896.578Z" fill="#4A3244"/>
</g>
<path fill-rule="evenodd" clip-rule="evenodd" d="M102.508 958.455C102.508 933.598 82.3274 913.418 57.4708 913.418C32.6141 913.418 12.4336 933.598 12.4336 958.455C12.4336 983.312 32.6141 1003.49 57.4708 1003.49C82.3274 1003.49 102.508 983.312 102.508 958.455Z" fill="#FFC212"/>
<mask id="mask5_615_12641" style="mask-type:luminance" maskUnits="userSpaceOnUse" x="12" y="913" width="91" height="91">
<path d="M102.508 958.455C102.508 983.329 82.3442 1003.49 57.4708 1003.49C32.5974 1003.49 12.4336 983.329 12.4336 958.455C12.4336 933.582 32.5974 913.418 57.4708 913.418C82.3442 913.418 102.508 933.582 102.508 958.455Z" fill="white"/>
</mask>
<g mask="url(#mask5_615_12641)">
<path d="M106.893 958.458H98.1056C98.1056 980.905 79.9089 999.102 57.4622 999.102V1007.89C84.7622 1007.89 106.893 985.758 106.893 958.458ZM57.4622 1007.89V999.102C35.0154 999.102 16.8187 980.905 16.8187 958.458H8.03125C8.03125 985.758 30.1621 1007.89 57.4622 1007.89ZM8.03125 958.458H16.8187C16.8187 936.012 35.0154 917.815 57.4622 917.815V909.027C30.1621 909.027 8.03125 931.158 8.03125 958.458ZM57.4622 909.027V917.815C79.9089 917.815 98.1056 936.012 98.1056 958.458H106.893C106.893 931.158 84.7622 909.027 57.4622 909.027Z" fill="#4A3244"/>
</g>
<path fill-rule="evenodd" clip-rule="evenodd" d="M1853.39 958.462C1853.39 928.139 1828.77 903.52 1798.45 903.52C1768.13 903.52 1743.51 928.139 1743.51 958.462C1743.51 988.786 1768.13 1013.4 1798.45 1013.4C1828.77 1013.4 1853.39 988.786 1853.39 958.462Z" fill="#F9E8D5"/>
<mask id="mask6_615_12641" style="mask-type:luminance" maskUnits="userSpaceOnUse" x="1740" y="900" width="116" height="116">
<path d="M1855.95 958.459C1855.95 990.208 1830.21 1015.95 1798.46 1015.95C1766.71 1015.95 1740.97 990.208 1740.97 958.459C1740.97 926.71 1766.71 900.973 1798.46 900.973C1830.21 900.973 1855.95 926.71 1855.95 958.459Z" fill="white"/>
</mask>
<g mask="url(#mask6_615_12641)">
<path d="M1860.33 958.458H1851.54C1851.54 987.781 1827.77 1011.55 1798.45 1011.55V1020.34C1832.62 1020.34 1860.33 992.634 1860.33 958.458ZM1798.45 1020.34V1011.55C1769.12 1011.55 1745.35 987.781 1745.35 958.458H1736.57C1736.57 992.634 1764.27 1020.34 1798.45 1020.34ZM1736.57 958.458H1745.35C1745.35 929.136 1769.12 905.366 1798.45 905.366V896.578C1764.27 896.578 1736.57 924.283 1736.57 958.458ZM1798.45 896.578V905.366C1827.77 905.366 1851.54 929.136 1851.54 958.458H1860.33C1860.33 924.283 1832.62 896.578 1798.45 896.578Z" fill="#4A3244"/>
</g>
<path fill-rule="evenodd" clip-rule="evenodd" d="M1843.48 958.455C1843.48 933.598 1823.3 913.418 1798.44 913.418C1773.59 913.418 1753.41 933.598 1753.41 958.455C1753.41 983.312 1773.59 1003.49 1798.44 1003.49C1823.3 1003.49 1843.48 983.312 1843.48 958.455Z" fill="#FFC212"/>
<mask id="mask7_615_12641" style="mask-type:luminance" maskUnits="userSpaceOnUse" x="1753" y="913" width="91" height="91">
<path d="M1843.48 958.455C1843.48 983.329 1823.32 1003.49 1798.44 1003.49C1773.57 1003.49 1753.41 983.329 1753.41 958.455C1753.41 933.582 1773.57 913.418 1798.44 913.418C1823.32 913.418 1843.48 933.582 1843.48 958.455Z" fill="white"/>
</mask>
<g mask="url(#mask7_615_12641)">
<path d="M1847.87 958.458H1839.08C1839.08 980.905 1820.88 999.102 1798.43 999.102V1007.89C1825.73 1007.89 1847.87 985.758 1847.87 958.458ZM1798.43 1007.89V999.102C1775.99 999.102 1757.79 980.905 1757.79 958.458H1749C1749 985.758 1771.13 1007.89 1798.43 1007.89ZM1749 958.458H1757.79C1757.79 936.012 1775.99 917.815 1798.43 917.815V909.027C1771.13 909.027 1749 931.158 1749 958.458ZM1798.43 909.027V917.815C1820.88 917.815 1839.08 936.012 1839.08 958.458H1847.87C1847.87 931.158 1825.73 909.027 1798.43 909.027Z" fill="#4A3244"/>
</g>
</svg>
