<svg width="28" height="28" viewBox="0 0 28 28" fill="none" xmlns="http://www.w3.org/2000/svg">
<g clip-path="url(#clip0_465_11289)">
<path d="M14 2.51562C15.8776 2.51562 17.1035 2.52018 17.6777 2.5293C18.252 2.53841 18.9128 2.5612 19.6602 2.59766C20.3346 2.63412 20.8724 2.70247 21.2734 2.80273C21.6745 2.90299 22.0026 2.9987 22.2578 3.08984C22.5859 3.21745 22.873 3.36328 23.1191 3.52734C23.3652 3.69141 23.6159 3.89193 23.8711 4.12891C24.1081 4.36588 24.3086 4.61198 24.4727 4.86719C24.6367 5.1224 24.7826 5.41406 24.9102 5.74219C25.0013 5.97917 25.097 6.29818 25.1973 6.69922C25.2975 7.10026 25.3659 7.64713 25.4023 8.33984C25.4206 9.06901 25.4388 9.72526 25.457 10.3086C25.4753 10.8919 25.4844 12.1224 25.4844 14C25.4844 15.8594 25.4753 17.0807 25.457 17.6641C25.4388 18.2474 25.4206 18.9036 25.4023 19.6328C25.3659 20.3255 25.2975 20.8724 25.1973 21.2734C25.097 21.6745 25.0013 21.9935 24.9102 22.2305C24.7826 22.5586 24.6367 22.8503 24.4727 23.1055C24.3086 23.3607 24.1081 23.6068 23.8711 23.8438C23.6159 24.099 23.3652 24.3086 23.1191 24.4727C22.873 24.6367 22.5859 24.7826 22.2578 24.9102C22.0026 25.0013 21.6745 25.097 21.2734 25.1973C20.8724 25.2975 20.3346 25.3568 19.6602 25.375C18.9128 25.4115 18.252 25.4342 17.6777 25.4434C17.1035 25.4525 15.8776 25.457 14 25.457C12.1406 25.457 10.9193 25.4525 10.3359 25.4434C9.7526 25.4342 9.08724 25.4115 8.33984 25.375C7.66536 25.3568 7.1276 25.2975 6.72656 25.1973C6.32552 25.097 5.9974 25.0013 5.74219 24.9102C5.43229 24.7826 5.14974 24.6367 4.89453 24.4727C4.63932 24.3086 4.39323 24.099 4.15625 23.8438C3.90104 23.6068 3.69141 23.3607 3.52734 23.1055C3.36328 22.8503 3.21745 22.5677 3.08984 22.2578C2.9987 22.0026 2.90299 21.6745 2.80273 21.2734C2.70247 20.8724 2.64323 20.3346 2.625 19.6602C2.58854 18.9128 2.56576 18.2474 2.55664 17.6641C2.54753 17.0807 2.54297 15.8594 2.54297 14C2.54297 12.1224 2.54753 10.8919 2.55664 10.3086C2.56576 9.72526 2.58854 9.06901 2.625 8.33984C2.64323 7.66537 2.70247 7.1276 2.80273 6.72656C2.90299 6.32552 2.9987 5.9974 3.08984 5.74219C3.21745 5.41406 3.36328 5.12695 3.52734 4.88086C3.69141 4.63477 3.89193 4.38412 4.12891 4.12891C4.38411 3.89193 4.63477 3.69141 4.88086 3.52734C5.12695 3.36328 5.41406 3.21745 5.74219 3.08984C5.9974 2.9987 6.32552 2.90299 6.72656 2.80273C7.1276 2.70247 7.66536 2.63412 8.33984 2.59766C9.08724 2.5612 9.74805 2.53841 10.3223 2.5293C10.8965 2.52018 12.1224 2.51562 14 2.51562ZM14 0C12.1042 0 10.8555 0.00455666 10.2539 0.0136719C9.65234 0.0227871 8.97786 0.0455723 8.23047 0.0820312C7.48307 0.11849 6.84049 0.191406 6.30273 0.300781C5.76497 0.410156 5.27734 0.55599 4.83984 0.738281C4.36589 0.920572 3.92839 1.13932 3.52734 1.39453C3.1263 1.64974 2.73438 1.96875 2.35156 2.35156C1.96875 2.73438 1.64974 3.1263 1.39453 3.52734C1.13932 3.92838 0.920573 4.36588 0.738281 4.83984C0.55599 5.27734 0.410156 5.76497 0.300781 6.30273C0.191406 6.84049 0.11849 7.48307 0.0820312 8.23047C0.0455729 8.97787 0.0227865 9.65234 0.0136719 10.2539C0.00455729 10.8555 0 12.1042 0 14C0 15.8958 0.00455729 17.1445 0.0136719 17.7461C0.0227865 18.3477 0.0455729 19.0221 0.0820312 19.7695C0.11849 20.5169 0.191406 21.1595 0.300781 21.6973C0.410156 22.235 0.55599 22.7227 0.738281 23.1602C0.920573 23.6341 1.13932 24.0716 1.39453 24.4727C1.64974 24.8737 1.96875 25.2656 2.35156 25.6484C2.73438 26.0312 3.1263 26.3503 3.52734 26.6055C3.92839 26.8607 4.36589 27.0794 4.83984 27.2617C5.27734 27.4258 5.76497 27.5671 6.30273 27.6855C6.84049 27.804 7.48307 27.8815 8.23047 27.918C8.97786 27.9544 9.65234 27.9772 10.2539 27.9863C10.8555 27.9954 12.1042 28 14 28C15.8958 28 17.1445 27.9954 17.7461 27.9863C18.3477 27.9772 19.0221 27.9544 19.7695 27.918C20.5169 27.8815 21.1595 27.804 21.6973 27.6855C22.235 27.5671 22.7227 27.4258 23.1602 27.2617C23.6159 27.0794 24.0443 26.8607 24.4453 26.6055C24.8464 26.3503 25.2474 26.0312 25.6484 25.6484C26.0312 25.2656 26.3503 24.8737 26.6055 24.4727C26.8607 24.0716 27.0794 23.6341 27.2617 23.1602C27.4258 22.7227 27.5671 22.235 27.6855 21.6973C27.804 21.1595 27.8724 20.5169 27.8906 19.7695C27.9271 19.0221 27.9499 18.3477 27.959 17.7461C27.9681 17.1445 27.9727 15.8958 27.9727 14C27.9727 12.1042 27.9681 10.8555 27.959 10.2539C27.9499 9.65234 27.9271 8.97787 27.8906 8.23047C27.8724 7.48307 27.804 6.84049 27.6855 6.30273C27.5671 5.76497 27.4258 5.27734 27.2617 4.83984C27.0794 4.38412 26.8607 3.95117 26.6055 3.54102C26.3503 3.13086 26.0312 2.73438 25.6484 2.35156C25.2656 1.96875 24.8737 1.64974 24.4727 1.39453C24.0716 1.13932 23.6341 0.920572 23.1602 0.738281C22.7227 0.574219 22.235 0.432943 21.6973 0.314453C21.1595 0.195963 20.5169 0.11849 19.7695 0.0820312C19.0221 0.0455723 18.3477 0.0227871 17.7461 0.0136719C17.1445 0.00455666 15.8958 0 14 0ZM14 6.80859C13.0156 6.80859 12.0859 7 11.2109 7.38281C10.3359 7.7474 9.57031 8.25781 8.91406 8.91406C8.25781 9.57031 7.7474 10.3359 7.38281 11.2109C7 12.0859 6.80859 13.0156 6.80859 14C6.80859 14.9844 7 15.9141 7.38281 16.7891C7.7474 17.6641 8.25781 18.4297 8.91406 19.0859C9.57031 19.7422 10.3359 20.2526 11.2109 20.6172C12.0859 21 13.0156 21.1914 14 21.1914C14.9844 21.1914 15.9141 21 16.7891 20.6172C17.6641 20.2526 18.4297 19.7422 19.0859 19.0859C19.7422 18.4297 20.2526 17.6641 20.6172 16.7891C21 15.9141 21.1914 14.9844 21.1914 14C21.1914 13.0156 21 12.0859 20.6172 11.2109C20.2526 10.3359 19.7422 9.57031 19.0859 8.91406C18.4297 8.25781 17.6641 7.7474 16.7891 7.38281C15.9141 7 14.9844 6.80859 14 6.80859ZM14 18.6758C12.7057 18.6758 11.6029 18.2201 10.6914 17.3086C9.77995 16.3971 9.32422 15.2943 9.32422 14C9.32422 12.7057 9.77995 11.6029 10.6914 10.6914C11.6029 9.77995 12.7057 9.32422 14 9.32422C15.2943 9.32422 16.3971 9.77995 17.3086 10.6914C18.2201 11.6029 18.6758 12.7057 18.6758 14C18.6758 15.2943 18.2201 16.3971 17.3086 17.3086C16.3971 18.2201 15.2943 18.6758 14 18.6758ZM23.1602 6.53516C23.1602 6.99088 22.9961 7.38281 22.668 7.71094C22.3398 8.03906 21.9388 8.20312 21.4648 8.20312C21.0091 8.20312 20.6172 8.03906 20.2891 7.71094C19.9609 7.38281 19.7969 6.99088 19.7969 6.53516C19.7969 6.0612 19.9609 5.66016 20.2891 5.33203C20.6172 5.00391 21.0091 4.83984 21.4648 4.83984C21.9388 4.83984 22.3398 5.00391 22.668 5.33203C22.9961 5.66016 23.1602 6.0612 23.1602 6.53516Z" fill="#4A3244"/>
</g>
<defs>
<clipPath id="clip0_465_11289">
<rect width="28" height="28" fill="white" transform="matrix(1 0 0 -1 0 28)"/>
</clipPath>
</defs>
</svg>
