<svg width="147" height="61" viewBox="0 0 147 61" fill="none" xmlns="http://www.w3.org/2000/svg">
<path fill-rule="evenodd" clip-rule="evenodd" d="M28.9721 8.00781L16.5184 8.66047L9.83594 29.0299L15.7651 49.7199L22.6457 47.0507L23.5406 57.6898C23.5406 57.6898 24.8869 56.8861 25.1358 56.5801C26.055 55.6722 26.9367 55.1674 28.721 55.1685C30.0175 55.1692 31.0473 55.7843 31.5562 56.3217C31.9445 56.7331 32.4401 56.8947 32.4401 56.8947L57.2444 46.9067L71.864 49.3451L72.8651 23.1287L64.2787 9.44255L47.9402 8.23016L28.9721 8.00781Z" fill="#4A3244"/>
<path fill-rule="evenodd" clip-rule="evenodd" d="M61.3974 20.6918C61.3316 22.1727 61.6609 23.5967 62.4879 24.4944C63.7857 25.902 65.4281 26.261 67.2219 26.5705C70.1835 27.0811 73.421 27.1067 75.7732 26.0747C76.4003 25.7997 76.8416 25.2218 76.9419 24.5447C77.0733 23.6689 77.1629 22.7235 77.087 21.8092C77.1517 20.3159 76.8853 18.8186 75.9737 17.5881C75.6596 17.1637 75.1894 16.8816 74.6668 16.8038L74.6068 16.7948C73.8138 16.6768 73.0156 16.7047 72.222 16.7429C71.8027 16.763 71.3827 16.8064 70.9711 16.7708C71.0735 16.155 71.2355 15.1927 71.2754 15.0087C71.7074 13.0016 72.2684 11.0301 72.6058 9.00229C72.7551 8.1069 72.8394 6.96817 72.5058 6.06905C72.32 5.56864 71.942 5.16361 71.4546 4.9448C69.5643 4.09547 68.421 3.89833 66.2482 3.97642C65.678 3.99691 65.1439 4.26099 64.7817 4.70147C63.6816 6.03888 63.2822 8.01488 62.9288 9.65103C62.416 12.0238 62.0553 14.4661 61.7261 16.8677C61.6007 17.782 61.2816 19.3599 61.3974 20.6918Z" fill="#4A3244"/>
<path d="M68.9206 17.9834C68.8681 18.7028 68.9558 19.3608 69.4033 19.5596C70.985 20.2611 72.6744 19.6759 74.3322 19.9229L74.3923 19.9319C75.3106 21.171 75.1864 22.8228 74.9731 24.2515C72.9355 25.1456 70.1261 25.0508 67.5606 24.6085C66.2091 24.3754 64.9293 24.2054 63.953 23.1452C63.1063 22.2264 63.3831 20.3504 63.5995 19.0428L68.9206 17.9834Z" fill="#AC7312"/>
<path d="M66.3181 5.9669C68.1218 5.90076 69.0703 6.05442 70.6393 6.75931C70.8578 7.34572 70.7388 8.08853 70.6434 8.67365C70.3089 10.6698 69.755 12.6126 69.3287 14.5868C69.2217 15.0834 68.357 17.9471 69.3846 18.4019C70.9663 19.1045 72.6534 18.5168 74.3113 18.7637L74.3719 18.7727C75.2908 20.0132 75.1687 21.6648 74.9561 23.0922C72.9174 23.9872 70.1087 23.8913 67.5413 23.451C66.1916 23.2169 64.9108 23.0468 63.9319 21.9875C62.9036 20.8713 63.5321 18.3444 63.6995 17.1376C64.0211 14.7841 64.373 12.3937 64.876 10.0714C65.1679 8.72192 65.4143 7.06812 66.3181 5.9669Z" fill="#FFC212"/>
<path d="M66.1594 6.8221C66.1537 6.82204 66.3168 6.29139 66.5596 6.30431C67.2578 6.34151 68.986 6.46411 70.3474 7.04529C70.4516 7.3152 70.4337 7.66552 70.43 7.66366C69.0685 7.08247 67.753 6.83359 66.1594 6.8221Z" fill="#FFE1A3"/>
<path fill-rule="evenodd" clip-rule="evenodd" d="M49.1955 12.6374C49.1165 13.6987 49.0541 14.7614 49.0094 15.8253C48.9824 16.342 48.9502 16.8836 48.914 17.45C48.8769 18.0216 48.8382 18.5732 48.7993 19.1049C48.7337 19.9747 48.7448 20.6559 48.8081 21.1481C48.9384 22.1551 49.4278 22.929 50.2676 23.4756C50.7708 23.8038 51.5511 24.0978 52.6411 24.2495C53.3829 24.3529 54.4168 24.455 55.7416 24.5538C56.127 24.5826 56.5423 24.6106 56.9864 24.6379C57.4549 24.6666 57.9309 24.6835 58.4134 24.6885C58.9201 24.6938 59.4122 24.6783 59.8907 24.6423C60.4774 24.5982 60.9992 24.5001 61.4571 24.3585C62.0031 24.1896 62.4503 23.7947 62.6841 23.2738C62.8603 22.8833 63.0028 22.392 63.0838 21.7927C63.1412 21.3755 63.1752 20.9508 63.1848 20.5184C63.2409 20.0892 63.2725 19.6519 63.2786 19.2066C63.2871 18.7107 63.2585 18.238 63.1981 17.7881C63.109 17.14 62.936 16.6377 62.733 16.2649C62.4753 15.7932 62.0371 15.4456 61.5203 15.3013L61.4037 15.2714L61.4041 15.2352C61.4306 15.0271 61.4525 14.8082 61.4698 14.5797C61.4834 14.3956 61.4926 14.211 61.4952 14.0262L61.6066 14.0039C62.2646 13.8541 62.7979 13.3825 63.0312 12.7559C63.1117 12.6036 63.2603 12.2857 63.3379 11.8875C63.4135 11.4979 63.4735 11.1038 63.5168 10.705C63.5485 10.412 63.565 10.1274 63.566 9.85119C63.5808 9.737 63.5955 9.62159 63.608 9.50589C63.657 9.05082 63.6688 8.61606 63.6465 8.20154C63.6121 7.58254 63.4791 7.08994 63.3015 6.71136C63.1089 6.29993 62.7816 5.96681 62.3734 5.7671C61.9998 5.5842 61.5745 5.42195 61.0955 5.28545C60.6987 5.17197 60.2899 5.07062 59.8714 4.98139C59.4495 4.89143 59.0357 4.8186 58.6309 4.76233C58.2262 4.70628 57.856 4.66604 57.5215 4.64105C57.1737 4.61527 56.7915 4.58386 56.3716 4.54697C55.9018 4.50559 55.4201 4.47911 54.9287 4.46761C54.4075 4.45561 53.8954 4.471 53.3916 4.51358C52.7884 4.56442 52.2349 4.67807 51.7265 4.84784C51.7265 4.84807 51.7254 4.84842 51.7243 4.84876C51.0311 5.08151 50.4358 5.55694 50.0365 6.38057C49.8374 6.79127 49.6813 7.26146 49.5793 7.79461C49.4977 8.22132 49.442 8.6713 49.4142 9.1446C49.402 9.34339 49.3907 9.53187 49.3781 9.71009L49.3792 9.70841C49.3549 9.91525 49.3362 10.127 49.3231 10.3437C49.3004 10.7166 49.2782 11.053 49.2565 11.3533C49.2436 11.5135 49.2329 11.6709 49.221 11.8254C49.2075 12.0107 49.2003 12.1822 49.2006 12.3396C49.1946 12.4503 49.193 12.5501 49.1955 12.6374Z" fill="#4A3244"/>
<path d="M60.8914 18.4155C61.0044 18.6216 61.0841 18.9016 61.1306 19.2554C61.1805 19.6094 61.2012 19.982 61.1963 20.3736C61.188 20.7649 61.1594 21.1477 61.1107 21.5222C61.0582 21.8998 60.9797 22.2095 60.8678 22.4544C60.5375 22.5581 60.1615 22.6237 59.7395 22.6547C59.3175 22.6856 58.8828 22.7018 58.4323 22.696C57.9853 22.6904 57.5425 22.6747 57.1074 22.6492C56.6723 22.6237 56.2653 22.5933 55.8859 22.565C54.6166 22.4704 53.6248 22.3757 52.9144 22.2741C52.2037 22.1761 51.6813 22.0192 51.3537 21.8075C51.023 21.592 50.8342 21.2866 50.7804 20.8907C50.7302 20.495 50.7326 19.9507 50.7848 19.2505C50.8249 18.7124 50.8629 18.1568 50.8992 17.5769C50.9352 17.0003 50.9697 16.4445 50.9985 15.9194C51.0427 14.8614 51.1039 13.8081 51.1823 12.7561C51.1856 12.7113 51.1861 12.6593 51.1835 12.6001C51.181 12.541 51.1859 12.4755 51.1921 12.3927C51.1875 12.2675 51.1946 12.1258 51.2062 11.9706L51.2412 11.5015C51.2643 11.1911 51.2866 10.8459 51.3085 10.4591C51.3336 10.076 51.3781 9.71161 51.442 9.36607C51.5094 9.02079 51.6052 8.71233 51.7359 8.44807C51.8634 8.18011 52.0426 8.00966 52.2668 7.93273C52.6332 7.8109 53.0309 7.73302 53.4672 7.69618C53.9 7.65908 54.3414 7.6469 54.7882 7.65593C55.2384 7.66522 55.6769 7.691 56.1041 7.72978C56.535 7.76538 56.9245 7.7979 57.2797 7.82438C57.5764 7.8465 57.9067 7.88153 58.2636 7.93242C58.624 7.98357 58.9905 8.04556 59.3626 8.12533C59.7382 8.20536 60.1023 8.29842 60.4557 8.3976C60.8122 8.50049 61.1295 8.61777 61.4073 8.75294C61.4937 8.94321 61.5475 9.19695 61.566 9.50701C61.5808 9.82027 61.5739 10.1458 61.5344 10.4897C61.4986 10.8304 61.449 11.1701 61.3824 11.505C61.3158 11.8399 61.291 11.7999 61.2129 12.0577C61.0609 12.0949 60.8965 12.1139 60.7159 12.1178C60.5387 12.1219 60.3208 12.1126 60.0622 12.0933C59.8035 12.074 59.4968 12.0477 59.1349 12.0172C58.7767 11.9836 58.3389 11.9474 57.8215 11.9089L56.9661 11.8451C56.597 11.8176 56.3036 11.7992 56.0789 11.7893C55.8579 11.7763 55.6799 11.7908 55.5524 11.8264C55.4214 11.8617 55.3335 11.9246 55.2852 12.0146C55.2405 12.1014 55.2103 12.2275 55.1985 12.3862C55.19 12.5 55.1494 12.9513 55.1622 13.0598C55.1781 13.172 55.2189 13.2756 55.2881 13.3709C55.3536 13.4694 55.4548 13.5533 55.5887 13.6188C55.7223 13.6877 55.903 13.7289 56.1307 13.7459C56.3376 13.7613 56.5969 13.7737 56.9046 13.7863C57.2158 13.7991 57.4689 13.8006 57.6638 13.7909C57.8585 13.7846 58.053 13.7817 58.2437 13.7821C58.4342 13.7859 58.6244 13.7931 58.821 13.8077C59.0038 13.8214 59.1681 13.851 59.3138 13.8965C59.3666 14.119 59.3985 14.3884 59.4101 14.698C59.4215 15.011 59.4159 15.3192 59.3927 15.6296C59.3698 15.9366 59.362 15.7626 59.3212 16.0301C59.277 16.2974 59.2348 16.4919 59.191 16.6135C59.1064 16.6315 59.0044 16.6516 58.8742 16.6766C58.7474 16.7018 58.6427 16.7114 58.5633 16.7054C58.4116 16.6941 58.2635 16.6796 58.1162 16.6548C57.9687 16.6334 57.8147 16.6046 57.6579 16.5686C57.4973 16.5358 57.2882 16.5029 57.0271 16.4695C56.7623 16.4394 56.5455 16.4162 56.373 16.4034C55.9626 16.3728 55.6606 16.4231 55.4739 16.5549C55.2874 16.6832 55.1578 17.3047 55.1442 17.4875C55.121 17.798 55.1924 18.0045 55.3581 18.107C55.5202 18.2127 55.8618 18.2833 56.3757 18.3216C56.524 18.3327 56.6933 18.3418 56.8763 18.352C57.0596 18.3587 57.2467 18.3623 57.4342 18.3589C57.6252 18.3558 57.8128 18.3524 57.9969 18.3488C58.181 18.3452 58.3441 18.3435 58.4831 18.34C58.7823 18.3276 59.1295 18.3223 59.5282 18.3243C59.9235 18.326 60.2731 18.3347 60.5698 18.3568C60.625 18.3609 60.6799 18.3685 60.7311 18.3793C60.7823 18.39 60.837 18.4011 60.8914 18.4155Z" fill="#AC7312"/>
<path d="M60.9813 17.2163C61.0942 17.4224 61.174 17.7024 61.2204 18.0561C61.2703 18.4102 61.2911 18.7828 61.2862 19.1744C61.2778 19.5657 61.2493 19.9485 61.2005 20.3229C61.1481 20.7006 61.0695 21.0103 60.9576 21.2552C60.6273 21.3589 60.2513 21.4245 59.8293 21.4555C59.4074 21.4864 58.9726 21.5026 58.5221 21.4967C58.0751 21.4912 57.6324 21.4755 57.1973 21.45C56.7622 21.4245 56.3551 21.3941 55.9757 21.3658C54.7064 21.2712 53.7146 21.1764 53.0042 21.0749C52.2936 20.9768 51.7712 20.82 51.4436 20.6082C51.1128 20.3928 50.924 20.0874 50.8703 19.6915C50.82 19.2958 50.8224 18.7514 50.8746 18.0513C50.9147 17.5132 50.9527 16.9576 50.989 16.3776C51.0251 15.8011 51.0596 15.2453 51.0883 14.7202C51.1325 13.6622 51.1937 12.6089 51.2721 11.5569C51.2755 11.5121 51.2759 11.4601 51.2734 11.4009C51.2709 11.3418 51.2757 11.2762 51.2819 11.1935C51.2774 11.0683 51.2845 10.9266 51.296 10.7714L51.331 10.3023C51.3541 9.99187 51.3764 9.64668 51.3983 9.25986C51.4234 8.87674 51.4679 8.51239 51.5318 8.16686C51.5992 7.82157 51.695 7.51311 51.8257 7.24885C51.9532 6.98089 52.1324 6.81044 52.3567 6.73351C52.723 6.61169 53.1207 6.5338 53.557 6.49696C53.9898 6.45987 54.4313 6.44768 54.878 6.45671C55.3282 6.466 55.7667 6.49178 56.1939 6.53056C56.6248 6.56616 57.0143 6.59868 57.3696 6.62517C57.6662 6.64728 57.9966 6.68231 58.3535 6.7332C58.7138 6.78435 59.0804 6.84634 59.4525 6.92611C59.828 7.00614 60.1922 7.0992 60.5455 7.19838C60.902 7.30127 61.2193 7.41855 61.4971 7.55372C61.5835 7.74399 61.6374 7.99773 61.6559 8.3078C61.6707 8.62105 61.6638 8.94659 61.6243 9.29048C61.5885 9.63118 61.5389 9.97084 61.4723 10.3058C61.4057 10.6407 61.335 10.9372 61.2602 11.1952C61.1049 11.2322 60.9405 11.2511 60.7633 11.2553C60.5826 11.2591 60.3649 11.2498 60.1096 11.2308C59.8509 11.2115 59.5407 11.1849 59.1823 11.1547C58.8206 11.1208 58.3828 11.0847 57.8689 11.0464L57.01 10.9824C56.6444 10.9551 56.351 10.9367 56.1263 10.9269C55.9018 10.9136 55.7239 10.9281 55.5964 10.9637C55.4654 10.999 55.3774 11.0618 55.3326 11.1521C55.2845 11.2387 55.2543 11.3648 55.2425 11.5234C55.234 11.6373 55.2393 11.7521 55.252 11.8606C55.2679 11.9727 55.3088 12.0764 55.378 12.1717C55.4434 12.2702 55.5447 12.3541 55.6785 12.4196C55.8121 12.4885 55.9929 12.5297 56.2205 12.5467C56.4275 12.5621 56.6867 12.5745 56.9945 12.5871C57.3057 12.5999 57.5587 12.6014 57.7537 12.5916C57.9484 12.5853 58.1428 12.5825 58.3336 12.5828C58.524 12.5866 58.7142 12.5939 58.9108 12.6085C59.0936 12.6222 59.2579 12.6518 59.4037 12.6973C59.4565 12.9198 59.4884 13.1892 59.5 13.4988C59.5113 13.8118 59.5057 14.12 59.4826 14.4304C59.4597 14.7374 59.4243 15.0261 59.3835 15.2936C59.3393 15.5608 59.2971 15.7554 59.2531 15.8805C59.1685 15.8984 59.0664 15.9186 58.9362 15.9436C58.8095 15.9688 58.7047 15.9783 58.6254 15.9724C58.4736 15.9611 58.3258 15.9431 58.1783 15.9217C58.031 15.8969 57.8768 15.8715 57.7199 15.8355C57.5596 15.7993 57.3505 15.7663 57.0891 15.7364C56.8243 15.7063 56.6075 15.6832 56.4385 15.6706C56.0246 15.6398 55.726 15.6903 55.5361 15.8184C55.3494 15.9501 55.2477 16.1055 55.234 16.2883C55.2109 16.5988 55.2822 16.8052 55.448 16.9078C55.61 17.0135 55.9516 17.0841 56.4655 17.1224C56.6138 17.1334 56.7831 17.1426 56.9662 17.1528C57.1495 17.1595 57.3365 17.163 57.5241 17.1597C57.715 17.1566 57.9026 17.1532 58.0867 17.1496C58.2708 17.146 58.4339 17.1443 58.5729 17.1408C58.8721 17.1284 59.2194 17.1231 59.6181 17.125C60.0133 17.1268 60.363 17.1355 60.6596 17.1576C60.7148 17.1617 60.7697 17.1693 60.821 17.1801C60.8722 17.1908 60.9268 17.2018 60.9813 17.2163Z" fill="#FFC212"/>
<path d="M52.1538 8.02563C52.1538 8.02563 52.3449 7.32717 52.6369 7.0967C52.9447 6.85331 53.7453 6.81878 53.9702 6.8017C54.7122 6.74502 55.5613 6.81123 56.3001 6.86659C57.842 6.98202 59.5647 7.10514 60.9661 7.7178C61.1166 8.00634 61.1092 8.45558 61.0817 8.76585C61.0627 8.59389 61.0242 8.45038 60.964 8.33529C59.2727 7.5957 56.9395 7.34468 55.0739 7.29271C54.4875 7.27645 53.4837 7.27578 52.9083 7.46819C52.6246 7.56304 52.3822 7.85378 52.1538 8.02563Z" fill="#FFE1A3"/>
<path fill-rule="evenodd" clip-rule="evenodd" d="M40.254 7.3301C40.2361 7.65942 40.2383 8.00069 40.2607 8.35392C40.3077 9.07106 40.4231 9.70379 40.5946 10.2541C40.5147 10.4398 40.4582 10.6428 40.4309 10.8651C40.3327 11.3629 40.2594 11.8913 40.2109 12.4489C40.1634 12.9967 40.1258 13.6762 40.0991 14.4876C40.0481 16.0473 40.0285 17.3594 40.0402 18.4238C40.0438 18.7139 40.0493 18.9816 40.0566 19.2271L40.0566 19.2253C40.0576 19.3607 40.0587 19.4927 40.0596 19.621C40.0724 20.8155 40.1336 21.6599 40.2214 22.156C40.2347 22.2307 40.2526 22.3046 40.2737 22.3772C40.3614 22.6731 40.5138 22.9965 40.7637 23.3301C41.017 23.669 41.3718 23.9182 41.7765 24.0419C42.2991 24.2017 42.8874 24.3205 43.5413 24.3918C44.1398 24.457 44.7355 24.4861 45.3295 24.4794C45.95 24.4723 46.5378 24.4223 47.0928 24.3313C47.7758 24.2193 48.3273 24.0465 48.7532 23.8422C49.0562 23.6972 49.3171 23.4777 49.5129 23.2046C49.8212 22.7719 50.0141 22.2511 50.0338 21.6245C50.0345 21.6028 50.0353 21.581 50.0349 21.5592C50.0351 21.0245 50.0281 20.4549 50.0138 19.8503C50.0091 19.287 49.9972 18.6878 49.978 18.0526C49.9535 17.2252 49.9169 16.3943 49.869 15.5603C49.8198 14.7104 49.7522 13.8864 49.6662 13.0882C49.5777 12.268 49.4651 11.5329 49.3295 10.8824C49.3014 10.7201 49.2568 10.562 49.1946 10.4089C49.2583 10.1772 49.3205 9.92137 49.3802 9.64127C49.4542 9.29555 49.5104 8.94226 49.5499 8.5814C49.5886 8.23758 49.6129 7.89333 49.6239 7.54875C49.6358 7.18799 49.6259 6.85238 49.5965 6.54175L49.6045 6.35144C49.6169 5.96047 49.6044 5.59901 49.5702 5.26667C49.4953 4.53548 49.0226 3.90523 48.3421 3.62763C47.8978 3.44632 47.3346 3.30533 46.6441 3.23279C46.11 3.17663 45.5508 3.14831 44.97 3.14866C44.3925 3.14908 43.8375 3.17623 43.304 3.22925C42.6832 3.291 42.1704 3.38915 41.7641 3.51004C41.0672 3.71739 40.5387 4.288 40.3854 4.99866C40.2424 5.6618 40.191 6.38099 40.2412 7.15672L40.254 7.3301Z" fill="#4A3244"/>
<path d="M42.4827 12.1856C42.6416 12.1225 42.8523 12.073 43.1148 12.0373C43.3735 11.9975 43.6637 11.9748 43.9819 11.9611C44.3 11.9473 44.6219 11.9417 44.9556 11.9446C45.2894 11.9434 45.6147 11.954 45.9234 11.9842C46.2322 12.0103 46.5085 12.0475 46.7522 12.0957C46.992 12.1397 47.1791 12.198 47.314 12.2547C47.3562 12.3164 47.3824 12.3776 47.3922 12.4463C47.5213 13.0497 47.6235 13.7366 47.7072 14.4994C47.7908 15.2661 47.8534 16.0604 47.9032 16.8743C47.9491 17.6881 47.9829 18.5015 48.0087 19.3106C48.0345 20.1237 48.0463 20.8721 48.0438 21.5637C48.0377 21.7525 47.9881 21.9157 47.8953 22.0494C47.6054 22.1848 47.2319 22.2932 46.7711 22.3666C46.3101 22.4441 45.8222 22.4845 45.3073 22.4918C44.7924 22.4951 44.2785 22.4703 43.7576 22.4131C43.2407 22.3561 42.7731 22.2684 42.3591 22.1383C42.2744 22.023 42.2135 21.9164 42.1848 21.8109C42.1064 21.3781 42.062 20.6448 42.0517 19.6029C42.0415 18.5611 42.0592 17.2788 42.109 15.7524C42.134 14.9851 42.1712 14.3389 42.2162 13.8216C42.2613 13.3003 42.3295 12.812 42.4249 12.3526C42.4272 12.2843 42.4451 12.2287 42.4827 12.1856Z" fill="#AC7312"/>
<path d="M42.4625 10.9869C42.6213 10.9237 42.832 10.8743 43.0946 10.8386C43.3532 10.7988 43.6435 10.7761 43.9617 10.7623C44.2798 10.7486 44.6017 10.743 44.9354 10.7458C45.2692 10.7446 45.5945 10.7553 45.9032 10.7854C46.212 10.8116 46.4882 10.8487 46.732 10.8969C46.9718 10.9409 47.1589 10.9993 47.2937 11.056C47.336 11.1177 47.3621 11.1789 47.372 11.2475C47.5011 11.8509 47.6033 12.5379 47.687 13.3006C47.7706 14.0674 47.8332 14.8616 47.883 15.6756C47.9289 16.4893 47.9626 17.3027 47.9885 18.1118C48.0143 18.925 48.0261 19.6734 48.0236 20.3649C48.0175 20.5537 47.9679 20.717 47.8751 20.8507C47.5852 20.986 47.2117 21.0945 46.7508 21.1679C46.2899 21.2453 45.802 21.2857 45.287 21.293C44.7722 21.2964 44.2583 21.2716 43.7374 21.2144C43.2205 21.1573 42.7529 21.0697 42.3389 20.9396C42.2542 20.8242 42.1933 20.7176 42.1646 20.6122C42.0862 20.1793 42.0417 19.446 42.0315 18.4042C42.0212 17.3623 42.039 16.0801 42.0888 14.5536C42.1138 13.7864 42.1509 13.1402 42.196 12.6229C42.2411 12.1016 42.3093 11.6132 42.4047 11.1539C42.407 11.0856 42.4249 11.0299 42.4625 10.9869ZM42.5018 8.54722C42.3591 8.11229 42.2671 7.60663 42.2297 7.02634C42.1922 6.45008 42.2258 5.91232 42.3343 5.42124C42.643 5.32676 43.0313 5.259 43.4994 5.20992C43.9713 5.16499 44.4627 5.14084 44.9733 5.14141C45.48 5.14185 45.9698 5.16584 46.4388 5.21331C46.9036 5.26466 47.2909 5.3497 47.5925 5.47213C47.6165 5.72223 47.6238 5.99186 47.6141 6.28912C47.6045 6.58236 47.5829 6.87523 47.5533 7.16782C47.5196 7.46028 47.474 7.74833 47.4126 8.02782C47.3551 8.31146 47.2906 8.5627 47.227 8.78582C46.8994 8.8435 46.5243 8.87951 46.1056 8.894C45.6869 8.9085 45.2607 8.90664 44.8312 8.88459C44.4015 8.86656 43.9845 8.82885 43.5804 8.76741C43.1761 8.70999 42.8165 8.63791 42.5018 8.54722Z" fill="#FFC212"/>
<path d="M42.5444 6.21953C42.5546 6.24439 42.5245 6.07828 42.6201 5.70663C42.8927 5.63703 43.2369 5.58414 43.6528 5.54788C44.0696 5.51169 44.5023 5.49286 44.952 5.49155C45.4016 5.49015 45.834 5.50749 46.2471 5.54343C46.6602 5.57937 46.9994 5.64328 47.2658 5.73497C47.2874 5.92258 47.3389 6.02242 47.2857 6.23692C47.2847 6.23761 47.2838 6.24319 47.2838 6.24319C47.0174 6.1515 46.6703 6.08614 46.2562 6.05021C45.8431 6.01427 45.4118 5.997 44.9621 5.99831C44.5125 5.99971 44.0798 6.01845 43.663 6.05473C43.2471 6.09091 42.817 6.14993 42.5444 6.21953Z" fill="#FFE1A3"/>
<path fill-rule="evenodd" clip-rule="evenodd" d="M11.4595 17.2827C10.4317 17.2879 9.40465 17.2657 8.37829 17.2181C7.55012 17.1798 6.78565 17.6581 6.45725 18.4191C6.05316 19.3566 5.93517 20.4032 6.03874 21.4673C5.91384 23.3147 6.63432 25.3733 7.4251 26.8571C7.69096 27.3545 8.15487 27.7161 8.7014 27.8522C10.6576 28.3386 13.4538 28.0965 15.4023 27.8366C18.6788 27.3995 22.4059 26.7042 25.0055 24.4374C26.86 22.8195 28.0789 20.3441 27.8109 18.0105C27.9438 16.451 27.5067 14.8745 26.2332 13.5062C25.284 12.487 24.4586 11.8039 23.5128 11.3347C23.9884 11.3931 24.4722 11.2774 24.8727 11.0051C25.3345 10.691 25.644 10.1975 25.7235 9.64496C25.9754 7.91662 25.2764 5.34077 24.6966 3.77142C24.4189 3.01875 24.1238 2.21944 23.5559 1.6528C23.2545 1.35312 22.8664 1.15729 22.4471 1.09373C17.7236 0.379251 11.283 2.0485 7.58613 5.08392C6.22901 6.19737 5.49202 7.95935 5.45176 9.7732C5.41083 11.5456 6.04161 13.3264 7.21263 14.5159C8.05068 15.3671 9.00894 16.1287 10.0657 16.6853C10.5132 16.921 10.981 17.1146 11.4595 17.2827Z" fill="#4A3244"/>
<path d="M24.6856 15.9427C24.7227 15.9809 24.7599 16.0196 24.7959 16.0587C26.8261 18.2403 25.6706 21.2147 23.6971 22.9352C21.3899 24.9477 18.0495 25.4733 15.1395 25.8614C13.4073 26.0925 10.9222 26.3508 9.18268 25.9184C8.36796 24.391 7.56553 22.1205 8.30656 20.403C9.41485 20.4543 10.526 20.477 11.6355 20.4696C12.2926 20.4654 12.9503 20.4272 13.6043 20.3681C14.2053 20.3139 14.8084 20.2545 15.3983 20.1298C16.2825 19.943 20.8131 18.244 20.8131 18.244L24.6856 15.9427Z" fill="#AC7312"/>
<path d="M9.16429 24.7237C8.34843 23.1954 7.54588 20.9243 8.28564 19.2063C9.39661 19.259 10.5066 19.2823 11.6156 19.2762C12.2702 19.2678 12.9295 19.2338 13.5831 19.1713C14.1845 19.1193 14.7982 19.1043 15.3758 18.9338C16.271 18.6747 18.744 17.7229 16.831 16.5783C15.9101 16.0235 15.049 16.256 14.0658 15.9802C13.021 15.6922 11.9514 15.4288 10.9917 14.9262C10.1136 14.4615 9.32922 13.825 8.62916 13.1172C6.98114 11.4504 6.99223 8.14713 8.84694 6.6241C12.346 3.75854 17.6958 2.39056 22.1489 3.06338C22.5136 3.42913 22.6481 3.97445 22.8299 4.4609C23.3115 5.77518 23.9639 7.91371 23.7513 9.35787C22.5803 9.0804 21.4055 8.80857 20.2129 8.66869C19.394 8.57198 18.5543 8.519 17.7377 8.65377C17.0974 8.75796 13.9411 9.45247 14.8983 11.046C15.0248 11.2574 15.1797 11.4878 15.4018 11.5862C17.7786 12.6325 20.2416 12.0233 22.6755 13.1568C23.4965 13.5343 24.1757 14.1871 24.7751 14.8609C26.7113 17.0518 25.6713 20.0244 23.6774 21.7383C21.2921 23.7876 18.1012 24.2127 15.1182 24.6651C13.4611 24.9148 10.8259 25.1343 9.16429 24.7237Z" fill="#FFC212"/>
<path d="M8.07324 9.75184C7.96179 8.7233 8.64398 7.51943 9.46921 6.80248C12.0753 4.53806 18.186 2.87595 21.9322 3.56832C21.9166 3.58964 22.1308 4.12998 22.1167 4.12726C18.4275 3.42279 11.9542 5.34132 9.26538 7.59423C8.58505 8.16369 8.13663 8.91761 8.07324 9.75184Z" fill="#FFE1A3"/>
<path fill-rule="evenodd" clip-rule="evenodd" d="M25.1897 12.0553C25.1897 12.0553 25.2112 12.3602 25.2215 12.5126C25.26 13.0483 25.3041 13.5838 25.3349 14.1198C25.3065 14.2781 25.2981 14.4402 25.3096 14.6024C25.3574 15.2997 26.1377 16.4119 26.1789 17.1096C26.2763 18.8149 25.3743 21.3172 26.126 23.0526C26.4697 23.847 26.9052 24.6376 27.8066 24.8977C29.1316 25.2805 30.7502 25.1421 32.0716 24.8283C33.0271 24.6012 34.0977 24.3055 34.5007 23.2984C34.7314 22.722 34.7192 22.1078 34.6397 21.5043C34.6857 21.2014 34.6525 20.5847 34.6525 20.5847C34.6525 20.5847 35.9447 20.4499 36.5727 20.2912C37.2206 20.1275 37.8554 19.9038 38.4695 19.6412C41.0483 18.539 42.1714 15.755 41.9645 13.0996C42.0005 12.3858 41.9284 11.2792 41.7607 10.5635C41.6632 10.1443 41.3663 9.02874 41.0393 8.51218C40.475 7.62111 40.2294 7.21597 39.5148 6.60624C37.1409 4.58309 33.7561 4.75763 30.8455 4.97569C29.599 5.06917 28.4709 5.22632 27.2201 5.45606C26.6421 5.56247 25.9623 5.73824 25.4791 6.09856C23.7171 7.41507 23.804 10.4536 25.1897 12.0553Z" fill="#4A3244"/>
<path d="M39.5332 11.141C39.7616 11.7163 39.9099 12.4037 39.976 13.2033C40.0476 14.0701 39.9843 14.8028 39.7827 15.4013C39.5822 15.9999 39.2982 16.4977 38.9296 16.8949C38.561 17.2921 38.1302 17.6043 37.6371 17.8315C37.1441 18.0586 36.6401 18.2313 36.1265 18.3496C35.6128 18.4679 35.1074 18.5477 34.6102 18.5891C34.1131 18.6304 33.68 18.6664 33.3098 18.6971C33.0789 18.7163 32.8978 18.74 32.7655 18.7684C32.6343 18.7967 32.5401 18.8483 32.4826 18.9229C32.4241 18.9975 32.3915 19.0992 32.3847 19.2277C32.3779 19.3563 32.3841 19.5303 32.402 19.75C32.4142 19.8886 32.4336 20.0616 32.4624 20.2687C32.4912 20.4757 32.5213 20.6914 32.5515 20.9159C32.5817 21.1403 32.6117 21.3561 32.6405 21.5632C32.6693 21.7703 32.6887 21.9431 32.701 22.0819C32.7174 22.2783 32.7012 22.4368 32.6534 22.5571C32.3612 22.6861 32.0178 22.796 31.6243 22.8869C31.2297 22.9779 30.8335 23.0398 30.4347 23.073C30.0369 23.1061 29.6532 23.1175 29.2857 23.1073C28.9182 23.0971 28.61 23.0559 28.3588 22.9835C28.2055 22.8101 28.0827 22.6021 27.9935 22.3593C27.9033 22.1166 27.8348 21.8517 27.787 21.5647C27.7403 21.2776 27.7033 20.9752 27.6771 20.6573C27.6509 20.3396 27.6237 20.0188 27.5974 19.6952C27.5121 18.6665 27.4501 17.6417 27.4114 16.6208C27.3854 15.9033 27.346 15.1841 27.2967 14.4629L30.3224 9.54957L36.4258 9.39154L39.5332 11.141ZM31.9914 13.7442C32.0192 14.0909 32.0589 14.3582 32.1095 14.546C32.1601 14.7339 32.2409 14.8697 32.3529 14.9535C32.4649 15.0374 32.6172 15.0829 32.8098 15.0902C33.0024 15.0974 33.2491 15.0886 33.5496 15.0637C33.7695 15.0454 34.0121 15.002 34.2798 14.9331C34.5487 14.8644 34.7926 14.7596 35.0138 14.6191C35.235 14.4785 35.4167 14.2947 35.5613 14.0674C35.7059 13.8401 35.7633 13.5588 35.7357 13.2237C35.7218 13.0504 35.6715 12.8769 35.5879 12.7036C35.5032 12.5302 35.3724 12.3811 35.1923 12.2563C35.0132 12.1315 34.7816 12.0373 34.4974 11.9736C34.2131 11.91 33.8621 11.8954 33.4467 11.9301C33.1108 11.9579 32.8416 12.0035 32.6369 12.0671C32.4332 12.1306 32.2789 12.2307 32.1738 12.3674C32.0687 12.5042 32.0041 12.6811 31.9821 12.8983C31.9591 13.1155 31.9626 13.3975 31.9914 13.7442Z" fill="#AC7312"/>
<path d="M32.6337 21.3606C32.3398 21.4893 31.9994 21.5993 31.6036 21.6886C31.2108 21.7804 30.8127 21.8417 30.4151 21.8747C30.0175 21.9077 29.6323 21.92 29.2647 21.9082C28.8975 21.8993 28.5895 21.8572 28.3382 21.785C28.1856 21.6116 28.0641 21.4046 27.9734 21.1612C27.8827 20.9178 27.8156 20.6527 27.7664 20.3664C27.7201 20.0798 27.6838 19.7783 27.6573 19.4591L27.5773 18.4958C27.4919 17.4682 27.4294 16.4442 27.3926 15.4238C27.3528 14.4009 27.2931 13.3767 27.2077 12.349C27.1924 12.1642 27.1773 11.9822 27.1708 11.8023C27.1615 11.6226 27.1352 11.4416 27.0975 11.2586C27.0776 11.1559 27.0249 11.0644 26.9372 10.9928C26.8492 10.9183 26.7569 10.8245 26.6599 10.7085C26.563 10.5953 26.4714 10.4422 26.3851 10.252C26.3016 10.0616 26.2422 9.78738 26.2124 9.42896C26.1826 9.07053 26.1734 8.78935 26.1872 8.58238C26.1985 8.37844 26.2274 8.21813 26.2765 8.09564C26.3258 7.97595 26.3916 7.88592 26.4742 7.82831C26.5538 7.76813 26.6588 7.70865 26.7811 7.65338C26.8808 7.59718 27.0565 7.5403 27.3078 7.47713C27.5594 7.41677 27.8364 7.3571 28.1386 7.29535C28.4438 7.23617 28.7383 7.18351 29.0253 7.14276C29.3123 7.102 29.544 7.07431 29.7176 7.05989C30.4681 6.99757 31.2302 6.93989 31.9984 6.88737C32.7693 6.83462 33.5186 6.82598 34.2487 6.85839C34.9788 6.8908 35.6697 6.99411 36.324 7.16534C36.9785 7.33936 37.5596 7.61533 38.068 7.99885C38.5791 8.38214 38.9997 8.89704 39.3325 9.54326C39.6653 10.1895 39.8746 11.0123 39.9571 12.0063C40.029 12.8716 39.963 13.6045 39.7648 14.2046C39.5635 14.8021 39.2776 15.2995 38.9103 15.6966C38.5401 16.0939 38.1093 16.406 37.6178 16.6329C37.1235 16.86 36.6192 17.0344 36.1072 17.1502C35.5927 17.2691 35.0863 17.3506 34.5907 17.3918L33.2886 17.4999C33.059 17.519 32.8776 17.5425 32.7474 17.5702C32.6144 17.5982 32.5201 17.6511 32.4613 17.7237C32.4055 17.7988 32.3717 17.9003 32.3656 18.0305C32.3592 18.1579 32.3652 18.3322 32.3836 18.5534C32.395 18.6906 32.415 18.8638 32.4434 19.0701C32.4718 19.2763 32.5012 19.4938 32.531 19.7169C32.561 19.9428 32.5901 20.1575 32.6216 20.3663C32.65 20.5726 32.67 20.7458 32.6814 20.883C32.6977 21.079 32.6799 21.2383 32.6337 21.3606ZM31.972 12.5455C32.0009 12.8927 32.04 13.1601 32.0894 13.3477C32.1417 13.5351 32.2207 13.6723 32.332 13.7561C32.4461 13.8397 32.5966 13.8864 32.7888 13.893C32.9811 13.8996 33.2284 13.8903 33.5281 13.8654C33.7493 13.8471 33.9938 13.8042 34.2615 13.734C34.5294 13.6667 34.7716 13.562 34.994 13.4223C35.2134 13.28 35.3983 13.0955 35.5402 12.8694C35.685 12.6431 35.7433 12.3619 35.7154 12.0259C35.701 11.8523 35.6528 11.6787 35.5679 11.5053C35.483 11.3319 35.3522 11.182 35.1728 11.0588C34.9931 10.9327 34.7626 10.8391 34.4781 10.7753C34.1937 10.7115 33.843 10.6984 33.4258 10.733C33.0898 10.7609 32.82 10.8059 32.6165 10.8679C32.4133 10.9327 32.2581 11.033 32.1537 11.1685C32.0496 11.3069 31.9854 11.4842 31.9611 11.7005C31.9396 11.9166 31.9432 12.1982 31.972 12.5455Z" fill="#FFC212"/>
<path d="M26.881 9.16974C26.8606 8.9354 26.8556 8.74843 26.866 8.60893C26.8772 8.45513 26.9036 8.33291 26.9471 8.24234C26.9896 8.15179 27.0472 8.08418 27.1207 8.03951C27.1933 7.99486 27.2844 7.95106 27.3932 7.90815C27.4815 7.86665 27.6372 7.82255 27.8593 7.77572C28.0805 7.7289 28.326 7.6826 28.5941 7.63677C28.8622 7.59102 29.1236 7.55219 29.3772 7.52056C29.6318 7.48891 29.8348 7.46741 29.9881 7.45628C30.652 7.40776 31.3248 7.36301 32.0045 7.32213C32.6842 7.28117 33.3468 7.27216 33.9923 7.29493C34.6369 7.31781 35.2481 7.39334 35.8259 7.52163C36.4037 7.64991 36.9174 7.85722 37.3658 8.14356C37.8142 8.4299 38.1852 8.81592 38.4785 9.30163C38.7708 9.78736 38.9529 10.4036 39.0237 11.1503C39.0483 11.4012 39.054 11.6371 39.042 11.8581L39.0395 11.8285C38.9951 11.3217 38.8999 10.8129 38.6985 10.3337C38.5755 10.0437 38.4098 9.76786 38.2072 9.51286C38.0635 9.33222 37.9005 9.16279 37.7171 9.01023C37.3 8.6632 36.7797 8.40787 36.2316 8.24227C35.8887 8.13869 35.5308 8.06976 35.1722 8.01698C34.8047 7.963 34.4337 7.92979 34.062 7.91471C33.839 7.90561 33.6151 7.90134 33.3922 7.90031C33.0598 7.8988 32.7276 7.90561 32.3954 7.91989C32.0135 7.93623 31.6336 7.96243 31.2528 7.98715C30.9179 8.00888 30.583 8.03178 30.2481 8.05567C30.0996 8.06623 29.9522 8.07577 29.8048 8.09055C29.2417 8.14724 28.682 8.23322 28.1285 8.34071C27.92 8.38117 27.7065 8.41964 27.5062 8.4859C27.4382 8.50845 27.3712 8.53722 27.3062 8.56604C27.1955 8.61539 27.0859 8.66979 27.0161 8.76079C26.9299 8.87425 26.9009 9.01122 26.8835 9.14318L26.881 9.16974Z" fill="#FFE1A3"/>
<path fill-rule="evenodd" clip-rule="evenodd" d="M88.9149 55.2396C88.9667 55.0877 89 54.9284 89.0137 54.7652C89.2324 52.1282 89.1602 49.1207 87.9795 46.6909C87.5653 45.8377 86.9963 44.9783 85.9624 44.8723C85.9624 44.8723 84.5575 44.8188 83.8559 44.8482C82.7781 44.8933 81.7126 45.1203 80.6339 45.1703C80.1818 45.1913 79.7281 45.1634 79.2753 45.1521C79.2116 45.1506 79.1486 45.1412 79.0856 45.1319C79.1046 44.7765 79.1398 44.346 79.1741 43.9804C79.6457 40.3497 80.4423 36.7625 80.7994 33.1161C80.8828 32.4664 80.9534 31.815 81.007 31.1622C81.1278 29.691 81.4625 27.1574 79.9929 26.1387C78.7761 25.2956 77.2618 24.8018 75.7247 24.554C74.677 24.3851 73.8406 25.0986 72.8606 25.1253C72.3036 25.1406 71.0334 25.1799 70.312 25.3232C69.6007 25.4643 69.216 24.9371 68.8357 25.5163C68.5937 25.8849 68.4386 26.06 68.2443 26.5308C66.929 29.4083 66.6884 33.004 66.3578 36.102L66.3398 36.2707C65.7577 41.0445 65.1224 45.9658 65.135 50.77C65.14 52.7078 65.2308 54.9241 66.5845 56.4763C68.3061 58.4761 70.9494 59.0266 73.4487 59.2733C77.9629 59.7188 82.739 60.1759 86.9702 58.1568C87.88 57.784 88.7702 57.2009 88.8594 56.1238C88.8834 55.8397 88.9023 55.545 88.9149 55.2396Z" fill="#4A3244"/>
<path d="M70.3823 27.9602C71.0336 27.797 71.7555 27.7101 72.5484 27.6994C73.3412 27.6887 74.1238 27.7404 74.8959 27.8539C75.6682 27.9675 76.3949 28.1339 77.0761 28.3529C77.7572 28.5721 78.3118 28.8299 78.7398 29.1265C78.9263 29.6053 79.0125 30.1139 78.9987 30.6525C78.9848 31.191 78.9534 31.7565 78.9042 32.3489C78.821 33.3514 78.6909 34.4237 78.5138 35.566C78.3367 36.7083 78.1541 37.8555 77.9657 39.0081C77.7775 40.1608 77.5954 41.3024 77.4192 42.4334C77.2431 43.5642 77.1144 44.6195 77.0331 45.5991C76.9915 46.1004 76.9666 46.5228 76.9587 46.8667C76.9508 47.2106 77.0045 47.4919 77.1201 47.7104C77.2357 47.9292 77.4374 48.0992 77.7257 48.2207C78.0138 48.3421 78.4231 48.4299 78.9534 48.4843C79.5449 48.5449 80.1202 48.5521 80.6795 48.506C81.2387 48.46 81.7831 48.4065 82.3126 48.346C82.8422 48.2853 83.3765 48.231 83.9151 48.1826C84.454 48.1345 84.9989 48.1387 85.5495 48.1951L85.6414 48.2046C85.9744 48.6523 86.2331 49.19 86.4177 49.8178C86.602 50.4455 86.7424 51.1091 86.8386 51.8083C86.9349 52.5074 86.9839 53.2191 86.9854 53.9431C86.987 54.6671 86.9623 55.3366 86.9112 55.9516C86.7145 56.0925 86.4779 56.2175 86.2013 56.3271C85.4941 56.6682 84.7775 56.9395 84.0511 57.1407C83.3246 57.342 82.4951 57.4868 81.5621 57.575C80.629 57.6633 79.532 57.683 78.2711 57.6343C77.0101 57.5854 75.4822 57.469 73.6873 57.2851C72.28 57.1409 71.1416 56.9152 70.2723 56.6078C69.4031 56.3005 68.687 55.8192 68.1243 55.1641C67.7484 54.7351 67.4926 54.1632 67.3565 53.4485C67.2204 52.7335 67.1555 51.8422 67.1618 50.7746C67.1682 49.7067 67.2361 48.4556 67.3654 47.0212C67.4948 45.587 67.636 43.947 67.7892 42.1014C67.8346 41.5547 67.8945 40.8945 67.9689 40.1208C68.0436 39.3472 68.1268 38.5285 68.2191 37.665C68.3115 36.8012 68.4208 35.9163 68.5475 35.0102C68.6742 34.1039 68.8123 33.245 68.962 32.4332C69.1116 31.6213 69.2704 30.885 69.4384 30.2243C69.6063 29.5638 69.7779 29.0471 69.9528 28.6744C70.0048 28.5418 70.0718 28.4166 70.1537 28.2986C70.2353 28.1806 70.3117 28.0677 70.3823 27.9602Z" fill="#9C2B5B"/>
<path d="M70.5366 26.6008C71.1879 26.4376 71.9098 26.3508 72.7027 26.3401C73.4955 26.3294 74.2781 26.381 75.0502 26.4946C75.8225 26.6081 76.5492 26.7745 77.2304 26.9935C77.9115 27.2127 78.4661 27.4705 78.8941 27.7671C79.0806 28.2459 79.1668 28.7545 79.153 29.2931C79.1391 29.8316 79.1077 30.3971 79.0585 30.9895C78.9753 31.992 78.8452 33.0643 78.6681 34.2066C78.491 35.3489 78.3084 36.4961 78.12 37.6487C77.9318 38.8015 77.7497 39.943 77.5735 41.074C77.3974 42.2048 77.2687 43.2601 77.1874 44.2398C77.1458 44.741 77.1209 45.1635 77.113 45.5073C77.1051 45.8512 77.1587 46.1325 77.2744 46.351C77.39 46.5698 77.5917 46.7399 77.88 46.8613C78.1681 46.9828 78.5774 47.0706 79.1077 47.1249C79.6992 47.1855 80.2745 47.1927 80.8338 47.1466C81.393 47.1006 81.9374 47.0471 82.4669 46.9866C82.9965 46.9259 83.5308 46.8716 84.0694 46.8232C84.6083 46.7751 85.1532 46.7794 85.7038 46.8358L85.7957 46.8452C86.1287 47.2929 86.3874 47.8306 86.572 48.4584C86.7563 49.0861 86.8967 49.7497 86.9929 50.449C87.0892 51.148 87.1381 51.8597 87.1397 52.5837C87.1413 53.3077 87.1166 53.9772 87.0655 54.5923C86.8688 54.7331 86.6322 54.8581 86.3556 54.9677C85.6484 55.3089 84.9318 55.5801 84.2054 55.7813C83.4789 55.9826 82.6494 56.1274 81.7164 56.2156C80.7833 56.3039 79.6863 56.3236 78.4254 56.2749C77.1644 56.226 75.6365 56.1096 73.8416 55.9257C72.4342 55.7815 71.2959 55.5559 70.4266 55.2485C69.5574 54.9411 68.8413 54.4599 68.2786 53.8048C67.9027 53.3757 67.6469 52.8038 67.5108 52.0891C67.3747 51.3742 67.3098 50.4829 67.3161 49.4152C67.3225 48.3473 67.3904 47.0962 67.5197 45.6618C67.6491 44.2276 67.7903 42.5876 67.9435 40.7421C67.9889 40.1953 68.0488 39.5351 68.1232 38.7614C68.1979 37.9878 68.2811 37.1692 68.3734 36.3056C68.4658 35.4418 68.5751 34.5569 68.7018 33.6508C68.8285 32.7445 68.9666 31.8856 69.1163 31.0738C69.2659 30.262 69.4247 29.5257 69.5927 28.8649C69.7606 28.2044 69.9321 27.6877 70.1071 27.3151C70.1591 27.1824 70.2261 27.0572 70.3079 26.9392C70.3896 26.8212 70.466 26.7083 70.5366 26.6008Z" fill="#DF1873"/>
<path d="M70.7087 27.7889C70.6751 27.8408 70.8163 27.5475 70.8873 27.4453C70.9584 27.3431 71.0238 27.2455 71.0855 27.1523C71.6491 27.0111 72.2745 26.9359 72.9605 26.9266C73.6466 26.9174 74.3247 26.962 74.9931 27.0603C75.6615 27.1587 76.2911 27.3026 76.8809 27.4924C77.4707 27.6821 77.9503 27.9054 78.3206 28.1623C78.3892 28.3369 78.4414 28.5162 78.4791 28.7C78.5305 28.9524 78.5295 28.9704 78.5304 28.9695C78.1448 28.7021 77.3912 28.3418 76.7773 28.1441C76.1635 27.9465 75.5079 27.7965 74.8118 27.694C74.1147 27.5917 73.4098 27.5452 72.6943 27.5549C71.9797 27.5645 71.2966 27.6417 70.7087 27.7889Z" fill="#EFA4C0"/>
<path fill-rule="evenodd" clip-rule="evenodd" d="M63.3585 43.4756C63.4319 42.8359 63.4906 42.0267 63.5062 41.3307C63.6281 39.977 63.6644 38.6015 63.5073 37.2491C63.6069 37.2494 63.7076 37.2498 63.8055 37.235C64.2497 37.1687 64.7085 37.1533 65.1324 37.0062C65.8231 36.7668 66.3264 36.2957 66.5037 35.5678C66.9198 33.8599 67.1664 32.0646 67.187 30.3056C67.3371 28.7259 67.7155 25.308 65.8362 24.3668C64.1103 23.5022 62.1775 23.0535 60.2152 22.8046C59.5949 22.7258 59.3278 22.8235 58.707 22.8169C57.7388 22.8066 56.4203 22.7211 55.4861 22.688C54.3983 22.6495 53.2839 22.4009 52.1754 22.4443C50.6444 22.5044 49.1243 22.7216 47.7055 23.3136C45.0759 24.4111 44.9365 28.1323 44.8537 30.4991L44.8538 30.4983C44.69 32.2374 44.5848 34.0411 44.631 35.7908C44.5411 38.1405 44.4655 40.4909 44.4242 42.842C44.3635 45.0612 44.1932 47.2775 44.1733 49.4974C44.1552 51.5818 43.8521 54.0699 45.4483 55.7202C46.5786 56.8887 48.3362 57.3178 49.8874 57.4865C53.1642 57.8427 56.7742 58.0751 60.1141 57.9502C62.0706 57.8771 63.2741 57.7798 65.1467 57.1595C65.6622 56.989 66.104 56.5022 66.2905 56.0064C66.7578 54.7703 66.8877 53.1406 66.9201 51.8113C66.9919 51.0323 67.033 50.2487 67.0209 49.4665C66.9954 47.9048 67.0557 44.227 64.925 43.6521C64.4088 43.5128 63.8908 43.4812 63.3585 43.4756Z" fill="#4A3244"/>
<path d="M64.3122 47.2002C64.5207 47.6013 64.6757 48.1561 64.7767 48.8642C64.8777 49.5724 64.9308 50.3187 64.9352 51.1037C64.9397 51.8882 64.9035 52.6596 64.8268 53.4178C64.7501 54.1757 64.6173 54.8043 64.4285 55.3038C63.8392 55.5319 63.1653 55.6928 62.4069 55.7868C61.6484 55.8804 60.8657 55.9387 60.0588 55.9609C59.2519 55.9836 58.4567 55.9835 57.6725 55.9607C56.8884 55.9378 56.1561 55.9119 55.4759 55.8822C53.1872 55.7823 51.4006 55.6579 50.1161 55.5097C48.8319 55.3612 47.8892 55.0837 47.2884 54.6768C46.6877 54.2697 46.3334 53.6715 46.2258 52.8824C46.118 52.0933 46.0973 50.9964 46.1631 49.5918C46.2138 48.5097 46.2611 47.3868 46.3053 46.2234C46.3495 45.0603 46.386 43.9487 46.4151 42.8885C46.4526 40.7673 53.904 37.2856 54.0293 37.4756C54.1546 37.6657 54.3385 37.8236 54.5804 37.9495C54.8223 38.0754 55.1495 38.1475 55.5619 38.1655C55.9331 38.1817 56.3977 38.1906 56.9554 38.1917C57.5131 38.1929 57.9685 38.1781 58.3211 38.1475C58.6739 38.1168 59.0207 38.0973 59.3622 38.089C59.7034 38.0811 60.0493 38.0844 60.3997 38.0997C60.7296 38.1141 61.027 38.1617 61.2919 38.2425C61.3951 38.6855 61.4631 39.219 61.4959 39.8434C61.5285 40.4679 61.5304 41.091 61.5013 41.7127C61.4722 42.3345 61.4242 42.6937 61.3577 43.2331C61.291 43.7722 61.2209 44.1672 61.1471 44.4178C61.0007 44.4575 60.8124 44.5071 60.5824 44.5663C60.3524 44.6256 60.1651 44.652 60.0207 44.6457C59.7528 44.634 59.4852 44.6106 59.2183 44.5761C58.9513 44.5412 58.6745 44.4945 58.3882 44.4359C58.1016 44.3773 57.7217 44.3261 57.2484 44.2823C56.7754 44.2384 56.3842 44.2099 56.0749 44.1964C55.3326 44.164 54.7949 44.2847 54.4618 44.5587C54.1287 44.8326 53.9535 45.3748 53.9363 45.7432C53.9071 46.365 54.043 46.7747 54.3437 46.9724C54.6444 47.1701 55.2586 47.2894 56.1864 47.3299C56.4543 47.3416 56.7536 47.349 57.084 47.3516C57.4147 47.3546 57.7506 47.3461 58.0926 47.3264C58.4344 47.3067 58.7711 47.2867 59.1026 47.2669C59.434 47.2468 59.7241 47.2305 59.9725 47.2182C60.5118 47.1724 61.1386 47.1366 61.8527 47.1099C62.5668 47.0833 63.1917 47.082 63.728 47.1054C63.8311 47.1099 63.9287 47.1199 64.0209 47.1353C64.1132 47.1508 64.2102 47.1725 64.3122 47.2002Z" fill="#9C2B5B"/>
<path d="M64.4062 45.575C64.6146 45.9761 64.7696 46.531 64.8707 47.2391C64.9717 47.9472 65.0247 48.6936 65.0292 49.4785C65.0336 50.2631 64.9975 51.0345 64.9207 51.7927C64.844 52.5505 64.7112 53.1792 64.5224 53.6786C63.9331 53.9067 63.2593 54.0676 62.5008 54.1616C61.7424 54.2552 60.9597 54.3135 60.1528 54.3358C59.3459 54.3584 58.5506 54.3583 57.7665 54.3355C56.9823 54.3127 56.2501 54.2868 55.5698 54.2571C53.2811 54.1572 51.4946 54.0328 50.2101 53.8846C48.9258 53.736 47.9832 53.4585 47.3824 53.0517C46.7816 52.6445 46.4274 52.0464 46.3198 51.2573C46.212 50.4682 46.1913 49.3712 46.2571 47.9667C46.3078 46.8846 46.3551 45.7616 46.3993 44.5982C46.4435 43.4352 46.48 42.3235 46.509 41.2634C46.5466 39.1421 46.6147 37.0225 46.714 34.904C46.7183 34.812 46.7181 34.7081 46.7132 34.5926C46.7083 34.4767 46.7095 34.3386 46.7171 34.1772C46.7084 33.923 46.7113 33.6407 46.7259 33.3296L46.7704 32.3801C46.7995 31.7583 46.8269 31.0615 46.8527 30.2897C46.8786 29.5179 46.944 28.7824 47.0491 28.0833C47.1542 27.3841 47.3176 26.7622 47.5394 26.2181C47.7612 25.674 48.0722 25.3185 48.4726 25.1514C49.1258 24.88 49.8422 24.692 50.622 24.5879C51.4015 24.4834 52.1947 24.4256 53.0008 24.4147C53.8072 24.4038 54.5966 24.4208 55.3694 24.4663C56.142 24.5115 56.8481 24.548 57.4872 24.5759C58.0233 24.5993 58.6149 24.6484 59.2625 24.7227C59.9097 24.797 60.5712 24.9009 61.2466 25.0343C61.9223 25.1677 62.5813 25.3232 63.2237 25.5012C63.8661 25.6795 64.4399 25.8949 64.9446 26.1476C65.1127 26.5241 65.2185 27.0246 65.2616 27.6495C65.3047 28.2744 65.2995 28.9318 65.2466 29.6218C65.1937 30.3118 65.1152 30.9945 65.0111 31.6708C64.9073 32.3468 64.7912 32.9476 64.6633 33.4726C64.3911 33.5528 64.0941 33.6034 63.7729 33.624C63.4517 33.6446 63.0591 33.645 62.5953 33.6247C62.1313 33.6045 61.5749 33.5741 60.926 33.5344C60.2769 33.4946 59.4885 33.4545 58.5607 33.4139L57.0142 33.3464C56.3545 33.3176 55.8232 33.3001 55.4206 33.294C55.018 33.2878 54.7012 33.3261 54.4702 33.4082C54.2388 33.4905 54.0829 33.6222 54.0022 33.8033C53.9214 33.9844 53.8734 34.2358 53.8583 34.5582C53.8475 34.7884 53.8575 35.0141 53.8887 35.2347C53.9196 35.4549 53.9979 35.6604 54.1232 35.8505C54.2486 36.0405 54.4324 36.1985 54.6744 36.3244C54.9163 36.4503 55.2434 36.5224 55.6558 36.5404C56.0271 36.5566 56.4917 36.5654 57.0494 36.5666C57.6071 36.5677 58.0625 36.553 58.415 36.5223C58.7679 36.4917 59.1146 36.4722 59.4561 36.4639C59.7973 36.4559 60.1433 36.4592 60.4937 36.4745C60.8235 36.4889 61.1209 36.5366 61.3859 36.6174C61.489 37.0603 61.557 37.5938 61.5898 38.2183C61.6224 38.8427 61.6244 39.4658 61.5953 40.0876C61.5661 40.7093 61.5181 41.2899 61.4516 41.829C61.3851 42.3684 61.3148 42.7634 61.241 43.014C61.0946 43.0537 60.9063 43.1033 60.6763 43.1625C60.4463 43.2214 60.2591 43.2479 60.1148 43.2416C59.8467 43.2299 59.5791 43.2067 59.3123 43.1719C59.0452 43.1374 58.7686 43.0907 58.482 43.0321C58.1955 42.9732 57.8156 42.922 57.3426 42.8785C56.8693 42.8346 56.478 42.8061 56.1688 42.7926C55.4265 42.7602 54.8887 42.8809 54.5557 43.1549C54.2226 43.4285 54.0475 43.7496 54.0302 44.1181C54.0011 44.7398 54.137 45.1495 54.4377 45.3473C54.7383 45.545 55.3525 45.6642 56.2804 45.7048C56.5483 45.7165 56.8476 45.7238 57.178 45.7264C57.5086 45.7295 57.8446 45.7209 58.1866 45.7012C58.5283 45.6815 58.8651 45.6616 59.1965 45.6418C59.528 45.6216 59.8181 45.6054 60.0665 45.593C60.6058 45.5473 61.2326 45.5115 61.9467 45.4848C62.6608 45.4581 63.2857 45.4568 63.822 45.4803C63.9251 45.4848 64.0226 45.4947 64.1149 45.5102C64.2072 45.5256 64.3042 45.5474 64.4062 45.575Z" fill="#DF1873"/>
<path d="M63.7267 26.6399C63.9361 26.7498 63.7896 27.55 63.7005 27.3504C61.1728 26.0845 58.0354 25.9693 55.2688 25.8699C53.9362 25.822 52.4128 25.7613 51.088 25.9769C50.4447 26.0816 49.224 26.33 48.7638 26.5166C48.7589 26.5189 48.9414 25.8514 49.2215 25.7629C49.9621 25.5291 51.6389 25.1543 53.2088 25.1141C55.5963 25.053 58.1233 25.1985 60.4701 25.6597C61.4969 25.8615 63.1882 26.3582 63.7267 26.6399Z" fill="#EFA4C0"/>
<path fill-rule="evenodd" clip-rule="evenodd" d="M30.9206 28.2887C30.9175 29.7699 30.9694 31.5772 31.5916 32.9453L31.5885 32.9481C31.3454 33.2848 31.1725 33.6938 31.124 34.1924C30.7291 36.3837 30.6126 38.8045 30.5533 41.0073C30.4881 43.4228 30.3442 48.4509 30.5261 51.5338C30.5561 52.6467 30.507 53.7866 30.7914 54.8629C31.0103 55.694 31.508 56.5762 32.3651 56.8759C35.1402 57.8469 38.1931 57.8621 41.0691 57.4694C42.1097 57.3273 43.7296 56.9577 44.3599 55.9803C44.7442 55.3845 44.9433 54.6627 44.9442 53.956C44.9469 51.3294 44.8703 48.3701 44.7518 45.7292C44.6097 41.9424 44.4372 38.1165 43.7449 34.3824C43.6999 34.0766 43.6069 33.7849 43.465 33.5088C43.5167 33.3999 43.5576 33.2848 43.5891 33.1651C44.0332 31.4367 44.2982 29.6493 44.333 27.8637C44.3455 27.2357 44.2791 25.9802 44.2791 25.9802C44.2904 24.8425 44.3027 23.5063 43.0811 22.939C40.657 21.8134 37.4723 21.9001 34.8996 22.1954C33.5817 22.3466 31.4414 22.4682 31.1062 24.1832C30.9946 24.7579 30.9231 25.3415 30.8884 25.926C30.8507 26.5537 30.8792 27.1838 30.8878 27.8126C30.89 27.9717 30.9059 28.1304 30.9206 28.2887Z" fill="#4A3244"/>
<path d="M33.2623 35.5848C33.5425 35.4651 33.9108 35.3713 34.3674 35.3035C34.8239 35.2357 35.329 35.1923 35.8829 35.1731C36.4366 35.1538 37.0049 35.1462 37.5875 35.1503C38.1703 35.1545 38.7323 35.1852 39.2739 35.2426C39.8155 35.3 40.2972 35.3769 40.7191 35.4729C41.1408 35.5691 41.4686 35.6776 41.7018 35.7984C41.7774 35.912 41.823 36.0354 41.8387 36.1686C42.0594 37.3476 42.2406 38.6848 42.3824 40.1802C42.5243 41.6756 42.635 43.2193 42.7147 44.8111C42.7943 46.4031 42.8544 47.9886 42.8948 49.5677C42.9353 51.1468 42.9546 52.609 42.9529 53.9546C42.9414 54.329 42.8527 54.645 42.6867 54.9023C42.1847 55.1664 41.5314 55.3688 40.727 55.5092C39.9224 55.6493 39.0707 55.7215 38.1717 55.7251C37.2726 55.729 36.3705 55.6718 35.4652 55.5541C34.56 55.4361 33.7458 55.2506 33.0225 54.9976C32.8714 54.7703 32.7693 54.5561 32.7163 54.3551C32.5841 53.511 32.5096 52.0738 32.4929 50.0435C32.4761 48.0133 32.5132 45.5111 32.6044 42.5371C32.6503 41.0392 32.7135 39.7845 32.794 38.7735C32.8744 37.7622 32.9974 36.8083 33.1632 35.9112C33.1673 35.7791 33.2002 35.6703 33.2623 35.5848Z" fill="#9C2B5B"/>
<path d="M33.2015 34.1153C33.4818 33.9956 33.8501 33.9018 34.3066 33.834C34.7631 33.7663 35.2682 33.7228 35.8221 33.7037C36.3758 33.6843 36.9441 33.6768 37.5268 33.6808C38.1096 33.6851 38.6716 33.7158 39.2131 33.7732C39.7547 33.8306 40.2364 33.9074 40.6583 34.0034C41.0801 34.0997 41.4078 34.2081 41.6411 34.329C41.7166 34.4426 41.7623 34.5659 41.778 34.6991C41.9986 35.8781 42.1798 37.2154 42.3217 38.7108C42.4635 40.2061 42.5743 41.7498 42.6539 43.3417C42.7336 44.9337 42.7936 46.5191 42.8341 48.0982C42.8745 49.6773 42.8938 51.1396 42.8921 52.4851C42.8807 52.8595 42.7919 53.1755 42.6259 53.4328C42.1239 53.6969 41.4707 53.8993 40.6663 54.0397C39.8617 54.1799 39.01 54.252 38.1109 54.2557C37.2118 54.2595 36.3097 54.2024 35.4044 54.0846C34.4993 53.9666 33.6851 53.7812 32.9618 53.5281C32.8107 53.3008 32.7086 53.0866 32.6555 52.8856C32.5233 52.0415 32.4489 50.6044 32.4321 48.5741C32.4153 46.5438 32.4525 44.0416 32.5437 41.0677C32.5896 39.5697 32.6528 38.3151 32.7332 37.304C32.8136 36.2928 32.9367 35.3388 33.1025 34.4418C33.1065 34.3097 33.1395 34.2008 33.2015 34.1153ZM33.3479 30.665C33.0974 29.8154 32.94 28.8267 32.8758 27.6988C32.8117 26.5709 32.8734 25.5257 33.0608 24.5635C33.5996 24.3893 34.2803 24.2598 35.1028 24.1754C35.9253 24.091 36.7811 24.0523 37.6698 24.0592C38.5587 24.066 39.4117 24.1208 40.2284 24.2236C41.0451 24.3266 41.7165 24.5 42.2424 24.7444C42.2868 25.2317 42.3002 25.7616 42.2827 26.3344C42.2651 26.9072 42.2277 27.4791 42.1706 28.0501C42.1137 28.6211 42.0324 29.1799 41.9266 29.7266C41.821 30.2733 41.7121 30.7649 41.5999 31.2009C41.0237 31.3075 40.3697 31.3719 39.638 31.3942C38.9063 31.4164 38.1658 31.4052 37.4163 31.3606C36.667 31.3158 35.9385 31.2336 35.2309 31.1135C34.5232 30.9935 33.8956 30.844 33.3479 30.665Z" fill="#DF1873"/>
<path d="M33.6687 25.8378C33.6669 25.8385 33.7157 25.3644 33.7611 25.1313C34.8596 24.7759 36.5757 24.6928 37.6742 24.7031C38.8726 24.7143 40.4081 24.7514 41.5564 25.2848C41.5853 25.5972 41.6034 26.1008 41.5947 26.0113C40.4455 25.4773 38.8904 25.4402 37.6937 25.429C36.7478 25.42 34.6395 25.5131 33.6687 25.8378Z" fill="#EFA4C0"/>
<path fill-rule="evenodd" clip-rule="evenodd" d="M17.1188 38.5583C15.8069 35.4439 14.9319 31.8694 13.0735 29.0183C12.5735 28.2014 11.5834 27.2402 10.5823 27.0651C8.14422 26.6386 5.47384 27.2109 3.19395 28.0613C2.20611 28.43 0.672903 28.8981 0.276883 30.0887C0.117589 30.5668 0.0257507 31.0719 0.00362658 31.5753C-0.0207099 32.1293 0.0832992 32.6816 0.140822 33.2332C0.150778 33.3361 0.178415 33.4369 0.20607 33.5369C0.154079 35.0907 0.821137 37.0205 1.27468 38.3404C3.51253 45.0169 6.84108 51.9395 11.9827 56.8839C14.381 59.22 17.5027 59.2903 20.6432 58.6344C21.8202 58.3887 23.2704 57.9593 24.2937 57.2691C25.1952 56.6623 25.9264 55.7743 26.526 54.8832C29.3048 50.7502 30.4486 45.5998 31.0725 40.7439C31.5935 36.6793 31.7771 32.3728 31.1809 28.2995C31.0614 26.7719 31.0371 24.0854 29.2882 23.278C27.7793 22.5813 25.8932 22.7086 24.183 23.1038C23.4795 23.2662 23.1001 24.4141 22.495 24.6284C22.0492 24.786 20.4529 24.9455 19.8578 25.6439C19.7106 25.8168 19.1764 25.4698 19.048 25.655C18.4817 26.4727 18.0989 27.4032 17.9253 28.3904C17.3379 31.7183 17.4297 35.197 17.1188 38.5583Z" fill="#4A3244"/>
<path d="M21.1847 28.2832C21.7298 27.9604 22.348 27.6829 23.0398 27.451C23.7313 27.219 24.4269 27.0366 25.1262 26.9039C25.8254 26.7712 26.4909 26.702 27.1224 26.6965C27.7538 26.6909 28.2665 26.7791 28.6602 26.9608C28.8263 27.1034 28.9351 27.2643 28.987 27.4434C29.039 27.6226 29.0841 27.8199 29.1225 28.0359C29.2914 28.9852 29.4078 30.12 29.472 31.4402C29.5362 32.7606 29.5394 34.1896 29.4816 35.7275C29.4238 37.2656 29.2954 38.8585 29.0965 40.5063C28.8975 42.1539 28.6138 43.7757 28.245 45.3715C27.8761 46.9673 27.4129 48.4831 26.8549 49.9189C26.2971 51.3548 25.6371 52.6395 24.8749 53.773C24.5847 54.1739 24.3159 54.525 24.0683 54.8267C23.8207 55.1283 23.5308 55.389 23.1982 55.6084C22.8659 55.828 22.4639 56.0239 21.9925 56.1957C21.5211 56.3676 20.928 56.5328 20.2132 56.6914C18.7645 57.0129 17.4859 57.106 16.3775 56.9707C15.269 56.8352 14.2654 56.3291 13.3666 55.452C12.0585 54.1947 10.8532 52.7518 9.75028 51.1237C8.64758 49.4957 7.66455 47.8635 6.8012 46.2271C5.93799 44.5906 5.20104 43.016 4.59066 41.503C3.98008 39.9899 3.5036 38.7219 3.16098 37.6989C2.74528 36.4903 2.45772 35.4944 2.29828 34.7111C2.139 33.9277 2.1639 33.2214 2.37327 32.5918C2.84483 32.3077 3.41098 32.0476 4.07167 31.8112C4.73252 31.5749 5.43368 31.3687 6.1755 31.193C6.91732 31.0173 7.65911 30.8974 8.40074 30.8338C9.14256 30.7702 9.82416 30.7927 10.4459 30.9014C10.6698 31.0312 10.8821 31.1803 11.0827 31.3489C11.2833 31.5174 11.455 31.7205 11.5977 31.958C11.8444 32.3293 12.1478 32.9348 12.5081 33.7745C12.8683 34.6142 13.2514 35.5553 13.6577 36.5978C14.064 37.6403 14.4858 38.7129 14.9229 39.8158C15.3599 40.9188 15.7846 41.9237 16.1968 42.8302C16.609 43.7367 16.9956 44.4697 17.356 45.029C17.7164 45.5881 18.0223 45.84 18.2734 45.7843C18.4473 45.7457 18.6061 45.3965 18.7496 44.7365C18.8934 44.0767 19.0228 43.2517 19.1378 42.2618C19.253 41.2719 19.3547 40.1783 19.4429 38.9812C19.5312 37.7842 19.6128 36.6334 19.6875 35.5291C19.762 34.4246 19.8308 33.4282 19.8936 32.5395C19.9564 31.6509 20.0229 31.008 20.0929 30.6112C20.1745 30.1669 20.3063 29.7509 20.4883 29.363C20.6702 28.9748 20.9024 28.6149 21.1847 28.2832Z" fill="#9C2C5B"/>
<path d="M20.9777 26.4102C21.5227 26.0873 22.141 25.8099 22.8328 25.578C23.5243 25.3459 24.2199 25.1635 24.9191 25.0309C25.6184 24.8982 26.2838 24.8289 26.9154 24.8235C27.5468 24.8179 28.0594 24.9061 28.4532 25.0877C28.6192 25.2303 28.728 25.3912 28.78 25.5703C28.832 25.7496 28.8771 25.9469 28.9155 26.1628C29.0843 27.1122 29.2008 28.2469 29.265 29.5671C29.3292 30.8875 29.3323 32.3166 29.2745 33.8545C29.2168 35.3925 29.0884 36.9855 28.8895 38.6333C28.6905 40.2809 28.4068 41.9027 28.0379 43.4985C27.6691 45.0942 27.2059 46.61 26.6479 48.0458C26.0901 49.4818 25.4301 50.7665 24.6678 51.9C24.3777 52.3008 24.1088 52.652 23.8613 52.9536C23.6137 53.2553 23.3237 53.516 22.9912 53.7354C22.6589 53.955 22.2569 54.1508 21.7855 54.3227C21.3141 54.4945 20.7209 54.6598 20.0062 54.8184C18.5574 55.1398 17.2788 55.2329 16.1705 55.0976C15.062 54.9622 14.0583 54.4561 13.1595 53.5789C11.8515 52.3216 10.6461 50.8788 9.54325 49.2506C8.44055 47.6227 7.45752 45.9904 6.59417 44.3541C5.73096 42.7176 4.99401 41.1429 4.38363 39.63C3.77305 38.1168 3.29657 36.8489 2.95395 35.8258C2.53825 34.6173 2.25069 33.6214 2.09125 32.838C1.93197 32.0546 1.95687 31.3484 2.16624 30.7187C2.6378 30.4346 3.20395 30.1745 3.86464 29.9382C4.52549 29.7018 5.22665 29.4957 5.96847 29.32C6.71029 29.1442 7.45208 29.0244 8.19371 28.9607C8.93553 28.8972 9.61713 28.9196 10.2389 29.0284C10.4627 29.1582 10.675 29.3073 10.8757 29.4758C11.0763 29.6444 11.248 29.8475 11.3907 30.085C11.6373 30.4562 11.9408 31.0618 12.301 31.9015C12.6613 32.7412 13.0443 33.6822 13.4506 34.7248C13.8569 35.7673 14.2787 36.8398 14.7159 37.9428C15.1529 39.0458 15.5776 40.0506 15.9898 40.9572C16.402 41.8637 16.7885 42.5967 17.149 43.156C17.5094 43.7151 17.8153 43.9669 18.0663 43.9112C18.2403 43.8726 18.399 43.5234 18.5426 42.8634C18.6864 42.2036 18.8158 41.3786 18.9308 40.3887C19.046 39.3988 19.1477 38.3052 19.2359 37.1082C19.3242 35.9111 19.4057 34.7603 19.4805 33.656C19.555 32.5515 19.6238 31.5552 19.6866 30.6664C19.7494 29.7778 19.8159 29.1349 19.8859 28.7382C19.9675 28.2939 20.0993 27.8779 20.2812 27.4899C20.4632 27.1018 20.6954 26.7418 20.9777 26.4102Z" fill="#DF1974"/>
<path d="M2.69988 31.833C2.69988 31.833 2.52369 31.7894 2.71184 31.2228C3.65757 30.6534 5.08709 30.2001 6.13337 29.964C7.3678 29.6852 8.69783 29.5243 10.0019 29.6389C10.203 29.7556 10.3593 30.1716 10.3593 30.1716C10.3593 30.1716 8.45391 30.0479 6.29664 30.5586C4.41613 31.0037 2.69988 31.833 2.69988 31.833Z" fill="#EFA4C0"/>
<path d="M20.6875 27.8C20.6875 27.8 20.7186 27.5881 20.7879 27.3772C20.8283 27.2554 20.9308 27.0331 21.086 26.9666C21.7506 26.6831 23.5754 25.8978 24.7741 25.6761C25.7129 25.5027 27.1175 25.2842 28.0812 25.7294C28.3804 25.9863 28.428 26.2878 28.4973 26.6431C28.4487 26.5772 28.3907 26.5146 28.3213 26.4554C27.3577 26.0103 25.8123 26.149 24.8734 26.3224C23.6748 26.5441 20.6875 27.8 20.6875 27.8Z" fill="#EFA4C0"/>
<path d="M135.861 37.6245C135.543 37.7347 135.169 37.8204 134.741 37.8817C134.325 37.9429 133.902 37.9735 133.473 37.9735C133.057 37.9735 132.653 37.949 132.261 37.9C131.882 37.8633 131.563 37.7959 131.306 37.698C131.159 37.5021 131.049 37.2694 130.975 37C130.902 36.7429 130.853 36.4612 130.829 36.1551C130.804 35.8489 130.792 35.5306 130.792 35.2C130.792 34.8571 130.792 34.5142 130.792 34.1714C130.792 33.0815 130.816 31.9978 130.865 30.9202C130.914 29.8427 130.939 28.759 130.939 27.6691C130.939 27.4732 130.939 27.2834 130.939 27.0997C130.951 26.9038 130.945 26.7079 130.92 26.512C130.908 26.4018 130.859 26.3038 130.773 26.2181C130.688 26.1324 130.596 26.0283 130.498 25.9058C130.412 25.7711 130.333 25.5997 130.259 25.3915C130.186 25.1834 130.149 24.8895 130.149 24.5099C130.149 24.1303 130.161 23.8364 130.186 23.6282C130.222 23.4078 130.271 23.2364 130.333 23.1139C130.394 22.9915 130.467 22.9057 130.553 22.8568C130.651 22.7955 130.767 22.7404 130.902 22.6915C131.012 22.6425 131.202 22.5996 131.471 22.5629C131.741 22.5139 132.035 22.471 132.353 22.4343C132.684 22.3976 133.002 22.3731 133.308 22.3608C133.614 22.3363 133.859 22.3241 134.043 22.3241C134.839 22.3241 135.641 22.3302 136.449 22.3425C137.27 22.3547 138.059 22.4098 138.819 22.5078C139.59 22.6057 140.312 22.7772 140.986 23.0221C141.659 23.2547 142.247 23.5976 142.749 24.0507C143.251 24.4915 143.649 25.067 143.943 25.7772C144.237 26.4875 144.384 27.3691 144.384 28.4222C144.384 29.3406 144.249 30.1059 143.98 30.7182C143.723 31.3305 143.38 31.8325 142.951 32.2244C142.535 32.604 142.057 32.8917 141.519 33.0877C140.98 33.2836 140.435 33.4244 139.884 33.5101C139.333 33.5836 138.794 33.6203 138.267 33.6203C137.741 33.6203 137.282 33.6203 136.89 33.6203C136.645 33.6203 136.449 33.6326 136.302 33.6571C136.167 33.6693 136.063 33.7122 135.99 33.7856C135.929 33.8591 135.886 33.9632 135.861 34.0979C135.849 34.2326 135.843 34.4163 135.843 34.6489C135.843 34.7959 135.849 34.9795 135.861 35.2C135.874 35.4204 135.886 35.653 135.898 35.8979C135.91 36.1306 135.923 36.3571 135.935 36.5775C135.947 36.798 135.953 36.9816 135.953 37.1286C135.953 37.3367 135.923 37.5021 135.861 37.6245ZM135.935 28.2936C135.935 28.661 135.953 28.9488 135.99 29.1569C136.027 29.3529 136.1 29.4998 136.21 29.5978C136.32 29.6957 136.474 29.7569 136.669 29.7814C136.878 29.8059 137.141 29.8182 137.459 29.8182C137.692 29.8182 137.949 29.7937 138.231 29.7447C138.525 29.6957 138.794 29.61 139.039 29.4876C139.284 29.3529 139.492 29.1753 139.663 28.9549C139.835 28.7222 139.921 28.4283 139.921 28.0732C139.921 27.8896 139.884 27.7059 139.81 27.5222C139.737 27.3263 139.608 27.1548 139.425 27.0079C139.253 26.861 139.021 26.7446 138.727 26.6589C138.433 26.5609 138.065 26.512 137.625 26.512C137.27 26.512 136.982 26.5365 136.761 26.5854C136.541 26.6344 136.369 26.7263 136.247 26.861C136.125 26.9956 136.039 27.1793 135.99 27.412C135.953 27.6324 135.935 27.9263 135.935 28.2936Z" fill="#F3E4CC"/>
<path d="M119.28 37.6245C118.962 37.7347 118.588 37.8204 118.16 37.8817C117.743 37.9429 117.321 37.9735 116.892 37.9735C116.476 37.9735 116.072 37.949 115.68 37.9C115.3 37.8633 114.982 37.7959 114.725 37.698C114.578 37.5021 114.468 37.2694 114.394 37C114.321 36.7429 114.272 36.4612 114.247 36.1551C114.223 35.8489 114.21 35.5306 114.21 35.2C114.21 34.8571 114.21 34.5142 114.21 34.1714C114.21 33.0815 114.235 31.9978 114.284 30.9202C114.333 29.8427 114.357 28.759 114.357 27.6691C114.357 27.4732 114.357 27.2834 114.357 27.0997C114.37 26.9038 114.364 26.7079 114.339 26.512C114.327 26.4018 114.278 26.3038 114.192 26.2181C114.106 26.1324 114.015 26.0283 113.917 25.9058C113.831 25.7711 113.751 25.5997 113.678 25.3915C113.604 25.1834 113.568 24.8895 113.568 24.5099C113.568 24.1303 113.58 23.8364 113.604 23.6282C113.641 23.4078 113.69 23.2364 113.751 23.1139C113.813 22.9915 113.886 22.9057 113.972 22.8568C114.07 22.7955 114.186 22.7404 114.321 22.6915C114.431 22.6425 114.621 22.5996 114.89 22.5629C115.159 22.5139 115.453 22.471 115.772 22.4343C116.102 22.3976 116.421 22.3731 116.727 22.3608C117.033 22.3363 117.278 22.3241 117.462 22.3241C118.258 22.3241 119.06 22.3302 119.868 22.3425C120.688 22.3547 121.478 22.4098 122.237 22.5078C123.009 22.6057 123.731 22.7772 124.405 23.0221C125.078 23.2547 125.666 23.5976 126.168 24.0507C126.67 24.4915 127.068 25.067 127.362 25.7772C127.656 26.4875 127.803 27.3691 127.803 28.4222C127.803 29.3406 127.668 30.1059 127.399 30.7182C127.141 31.3305 126.799 31.8325 126.37 32.2244C125.954 32.604 125.476 32.8917 124.937 33.0877C124.399 33.2836 123.854 33.4244 123.303 33.5101C122.752 33.5836 122.213 33.6203 121.686 33.6203C121.16 33.6203 120.7 33.6203 120.309 33.6203C120.064 33.6203 119.868 33.6326 119.721 33.6571C119.586 33.6693 119.482 33.7122 119.409 33.7856C119.347 33.8591 119.305 33.9632 119.28 34.0979C119.268 34.2326 119.262 34.4163 119.262 34.6489C119.262 34.7959 119.268 34.9795 119.28 35.2C119.292 35.4204 119.305 35.653 119.317 35.8979C119.329 36.1306 119.341 36.3571 119.353 36.5775C119.366 36.798 119.372 36.9816 119.372 37.1286C119.372 37.3367 119.341 37.5021 119.28 37.6245ZM119.353 28.2936C119.353 28.661 119.372 28.9488 119.409 29.1569C119.445 29.3529 119.519 29.4998 119.629 29.5978C119.739 29.6957 119.892 29.7569 120.088 29.7814C120.296 29.8059 120.56 29.8182 120.878 29.8182C121.111 29.8182 121.368 29.7937 121.649 29.7447C121.943 29.6957 122.213 29.61 122.458 29.4876C122.703 29.3529 122.911 29.1753 123.082 28.9549C123.254 28.7222 123.339 28.4283 123.339 28.0732C123.339 27.8896 123.303 27.7059 123.229 27.5222C123.156 27.3263 123.027 27.1548 122.843 27.0079C122.672 26.861 122.439 26.7446 122.145 26.6589C121.852 26.5609 121.484 26.512 121.043 26.512C120.688 26.512 120.4 26.5365 120.18 26.5854C119.96 26.6344 119.788 26.7263 119.666 26.861C119.543 26.9956 119.458 27.1793 119.409 27.412C119.372 27.6324 119.353 27.9263 119.353 28.2936Z" fill="#F3E4CC"/>
<path d="M111.599 36.7245C111.477 36.8959 111.201 37.0429 110.773 37.1653C110.344 37.2878 109.854 37.3796 109.303 37.4408C108.765 37.5021 108.214 37.5265 107.65 37.5143C107.099 37.5021 106.634 37.447 106.254 37.349C106.12 36.9816 105.967 36.6143 105.795 36.2469C105.624 35.8673 105.489 35.5061 105.391 35.1632C105.342 34.955 105.262 34.7959 105.152 34.6857C105.054 34.5754 104.92 34.4959 104.748 34.4469C104.589 34.3856 104.381 34.3489 104.124 34.3367C103.879 34.3244 103.579 34.3183 103.224 34.3183C103.052 34.3183 102.85 34.3183 102.618 34.3183C102.385 34.306 102.158 34.306 101.938 34.3183C101.717 34.3305 101.515 34.355 101.332 34.3918C101.148 34.4163 101.026 34.4652 100.964 34.5387C100.903 34.6122 100.848 34.6857 100.799 34.7591C100.75 34.8203 100.701 34.8999 100.652 34.9979C100.603 35.0959 100.548 35.2183 100.487 35.3653C100.438 35.5122 100.371 35.7081 100.285 35.953C100.211 36.1734 100.15 36.3694 100.101 36.5408C100.052 36.7122 100.009 36.8653 99.9725 37C99.9358 37.1225 99.8991 37.2388 99.8623 37.349C99.8256 37.4592 99.7766 37.5633 99.7154 37.6612C99.3358 37.698 98.9133 37.6919 98.448 37.6429C97.9827 37.6061 97.5235 37.5388 97.0704 37.4408C96.6174 37.3551 96.1949 37.2449 95.803 37.1102C95.4234 36.9755 95.1234 36.8286 94.903 36.6694C94.903 36.5224 94.9214 36.3571 94.9581 36.1734C94.9949 35.9775 95.0316 35.7816 95.0683 35.5857C95.1173 35.3775 95.1663 35.1816 95.2153 34.9979C95.2643 34.802 95.3071 34.6305 95.3439 34.4836C95.5275 33.6754 95.7479 32.7693 96.0051 31.7652C96.2745 30.7488 96.5806 29.7386 96.9235 28.7345C97.2786 27.7181 97.6643 26.763 98.0807 25.8691C98.5092 24.9752 98.9807 24.2527 99.495 23.7017C99.6664 23.518 99.893 23.3649 100.175 23.2425C100.468 23.12 100.799 23.0221 101.166 22.9486C101.534 22.8629 101.92 22.8017 102.324 22.7649C102.728 22.7282 103.132 22.7098 103.536 22.7098C103.818 22.7098 104.142 22.7343 104.509 22.7833C104.889 22.8323 105.262 22.9119 105.63 23.0221C106.009 23.1323 106.365 23.2853 106.695 23.4813C107.038 23.6649 107.307 23.9037 107.503 24.1976C107.785 24.6017 108.061 25.0915 108.33 25.667C108.599 26.2303 108.856 26.8487 109.101 27.5222C109.359 28.1957 109.603 28.9059 109.836 29.6529C110.069 30.3998 110.283 31.1468 110.479 31.8937C110.687 32.6407 110.871 33.3754 111.03 34.0979C111.201 34.8203 111.354 35.4938 111.489 36.1183C111.514 36.2163 111.538 36.3204 111.563 36.4306C111.599 36.5286 111.612 36.6265 111.599 36.7245ZM101.846 30.6447C101.785 30.9509 101.852 31.1284 102.048 31.1774C102.256 31.2386 102.464 31.2692 102.673 31.2692C102.893 31.257 103.107 31.2509 103.315 31.2509C103.646 31.2509 103.916 31.2386 104.124 31.2141C104.344 31.1774 104.509 31.1345 104.62 31.0856C104.73 31.0243 104.797 30.9631 104.822 30.9019C104.858 30.8284 104.865 30.7488 104.84 30.6631C104.803 30.5039 104.748 30.2345 104.675 29.8549C104.601 29.4631 104.503 29.0651 104.381 28.661C104.258 28.2569 104.105 27.9018 103.922 27.5957C103.75 27.2895 103.542 27.1365 103.297 27.1365C103.113 27.1365 102.942 27.2834 102.783 27.5773C102.624 27.8589 102.483 28.1957 102.36 28.5875C102.238 28.9794 102.128 29.3712 102.03 29.7631C101.944 30.1427 101.883 30.4366 101.846 30.6447Z" fill="#F3E4CC"/>
<path d="M91.4423 28.459C91.5402 28.6916 91.6259 28.961 91.6994 29.2671C91.7729 29.561 91.828 29.8733 91.8647 30.2039C91.9015 30.5345 91.9137 30.8713 91.9015 31.2141C91.9015 31.5448 91.8708 31.857 91.8096 32.1509C91.7851 32.1754 91.7606 32.1876 91.7361 32.1876C91.4668 32.3101 91.1729 32.408 90.8545 32.4815C90.5484 32.555 90.23 32.6101 89.8994 32.6468C89.5687 32.6836 89.2381 32.708 88.9075 32.7203C88.5891 32.7203 88.283 32.7203 87.9891 32.7203C87.4993 32.7203 86.985 32.7203 86.4462 32.7203C85.9074 32.7203 85.4054 32.6591 84.94 32.5366C84.9156 32.5366 84.8972 32.5366 84.8849 32.5366C84.8849 32.5244 84.8727 32.5182 84.8482 32.5182C84.64 31.955 84.5237 31.3366 84.4992 30.6631C84.4747 29.9896 84.5298 29.3467 84.6645 28.7345C84.689 28.7222 84.7013 28.7161 84.7013 28.7161C84.7135 28.7039 84.7319 28.6916 84.7564 28.6794C85.0992 28.5324 85.485 28.4283 85.9135 28.3671C86.3421 28.2936 86.783 28.2508 87.236 28.2385C87.7013 28.214 88.1544 28.2079 88.5952 28.2202C89.0483 28.2324 89.4585 28.2385 89.8259 28.2385C90.181 28.2385 90.4933 28.2569 90.7627 28.2936C91.032 28.3181 91.2586 28.3732 91.4423 28.459Z" fill="#F3E4CC"/>
<path d="M139.917 28.2031C139.898 28.5006 139.814 28.7512 139.663 28.9549L139.528 29.1123C139.386 29.2615 139.223 29.3865 139.039 29.4876C138.794 29.61 138.525 29.6957 138.231 29.7447C137.949 29.7937 137.692 29.8182 137.459 29.8182L137.023 29.8086L136.669 29.7814C136.474 29.7569 136.32 29.6957 136.21 29.5978C136.1 29.4998 136.027 29.3529 135.99 29.1569C135.962 29.0009 135.945 28.8002 135.938 28.5547L135.935 28.2936C135.935 28.018 135.945 27.7837 135.966 27.5908L135.99 27.412C136.039 27.1793 136.125 26.9956 136.247 26.861C136.369 26.7263 136.541 26.6344 136.761 26.5854C136.982 26.5365 137.27 26.512 137.625 26.512L137.941 26.5215C138.244 26.5398 138.506 26.5854 138.727 26.6589L138.935 26.7285C139.133 26.8043 139.296 26.8976 139.425 27.0079L139.552 27.123C139.669 27.2424 139.755 27.3752 139.81 27.5222C139.884 27.7059 139.921 27.8896 139.921 28.0732L139.917 28.2031ZM128.479 24.5098C128.479 24.1084 128.491 23.7385 128.527 23.4336L128.532 23.3936L128.539 23.3535C128.588 23.0588 128.671 22.7023 128.839 22.3672L128.902 22.249C129.055 21.9786 129.296 21.6703 129.669 21.4414L129.668 21.4404C129.885 21.3046 130.112 21.2019 130.331 21.1221C130.64 21.0031 130.976 20.9457 131.226 20.9111C131.52 20.8588 131.833 20.8133 132.162 20.7754L132.169 20.7744C132.511 20.7364 132.845 20.711 133.172 20.6963C133.497 20.6703 133.795 20.6543 134.043 20.6543C134.847 20.6543 135.658 20.6605 136.475 20.6729C137.354 20.686 138.206 20.745 139.032 20.8516C139.906 20.9626 140.739 21.1581 141.53 21.4434C142.404 21.7452 143.191 22.1993 143.868 22.8105C144.491 23.3622 144.975 24.0375 145.337 24.8027L145.486 25.1387C145.889 26.1112 146.054 27.2257 146.054 28.4219C146.054 29.4804 145.901 30.4829 145.518 31.3643C145.517 31.3684 145.515 31.3728 145.514 31.377C145.512 31.3814 145.511 31.3862 145.509 31.3906L145.508 31.3896C145.171 32.1824 144.702 32.8863 144.078 33.457L144.076 33.458C143.496 33.9871 142.829 34.3881 142.089 34.6572C141.451 34.889 140.801 35.0574 140.141 35.1602L140.123 35.1631L140.104 35.165C139.484 35.2477 138.872 35.29 138.267 35.29H137.538C137.547 35.4573 137.556 35.6308 137.565 35.8105L137.602 36.4854C137.616 36.7228 137.623 36.94 137.623 37.1289L137.612 37.4053C137.589 37.6993 137.521 38.0382 137.354 38.3711L137.051 38.9795L136.407 39.2021C135.966 39.3547 135.487 39.461 134.983 39.5332C134.982 39.5334 134.981 39.534 134.979 39.5342H134.976C134.481 39.6067 133.979 39.6436 133.474 39.6436C133.008 39.6436 132.55 39.6157 132.101 39.5615C131.744 39.527 131.388 39.4682 131.047 39.3701L130.712 39.2588L130.26 39.0859L129.971 38.7002C129.681 38.3139 129.485 37.8838 129.364 37.4395C129.26 37.068 129.195 36.6814 129.164 36.2881C129.136 35.9346 129.122 35.5718 129.122 35.2002V34.1709C129.122 33.0563 129.147 31.9476 129.197 30.8447C129.245 29.7927 129.268 28.7337 129.268 27.6689V27.0381L129.194 26.9492L129.138 26.8789L129.089 26.8027C128.915 26.5292 128.785 26.2331 128.684 25.9473C128.518 25.4769 128.479 24.9629 128.479 24.5098ZM130.156 24.7783C130.17 25.0309 130.204 25.2354 130.259 25.3915C130.333 25.5997 130.412 25.7711 130.498 25.9058L130.641 26.0762C130.686 26.128 130.731 26.1754 130.773 26.2181C130.859 26.3038 130.908 26.4018 130.92 26.512C130.945 26.7079 130.951 26.9038 130.939 27.0997V27.6691C130.939 28.759 130.914 29.8427 130.865 30.9202C130.816 31.9978 130.792 33.0815 130.792 34.1714V35.2L130.801 35.6865C130.807 35.8458 130.816 36.002 130.829 36.1551C130.853 36.4612 130.902 36.7429 130.975 37C131.049 37.2694 131.159 37.5021 131.306 37.698C131.563 37.7959 131.882 37.8633 132.261 37.9C132.555 37.9367 132.856 37.9596 133.164 37.9688L133.473 37.9735C133.902 37.9735 134.325 37.9429 134.741 37.8817C135.169 37.8204 135.543 37.7347 135.861 37.6245C135.907 37.5327 135.936 37.4164 135.947 37.2764L135.953 37.1286C135.953 36.9816 135.947 36.798 135.935 36.5775C135.923 36.3571 135.91 36.1306 135.898 35.8979L135.861 35.2C135.849 34.9795 135.843 34.7959 135.843 34.6489C135.843 34.4163 135.849 34.2326 135.861 34.0979C135.88 33.9971 135.908 33.9132 135.947 33.8467L135.99 33.7856C136.045 33.7307 136.118 33.6925 136.207 33.6719L136.302 33.6571C136.449 33.6326 136.645 33.6203 136.89 33.6203H138.267L138.665 33.6133C139.064 33.5995 139.471 33.5652 139.884 33.5101C140.297 33.4458 140.707 33.3509 141.113 33.2246L141.519 33.0877C141.99 32.9162 142.414 32.6743 142.792 32.3623L142.951 32.2244C143.38 31.8325 143.723 31.3305 143.98 30.7182C144.249 30.1059 144.384 29.3406 144.384 28.4222C144.384 27.501 144.272 26.7106 144.047 26.0518L143.943 25.7772C143.686 25.1559 143.349 24.6378 142.933 24.2227L142.749 24.0507C142.31 23.6542 141.805 23.3419 141.234 23.1143L140.986 23.0221C140.397 22.8078 139.77 22.6496 139.105 22.5479L138.819 22.5078C138.249 22.4343 137.662 22.3846 137.059 22.3594L136.449 22.3425C136.045 22.3363 135.642 22.3322 135.241 22.3291L134.043 22.3241C133.859 22.3241 133.614 22.3363 133.308 22.3608L132.84 22.3887C132.681 22.4009 132.518 22.416 132.353 22.4343C132.035 22.471 131.741 22.5139 131.471 22.5629C131.202 22.5996 131.012 22.6425 130.902 22.6915C130.767 22.7404 130.651 22.7955 130.553 22.8568C130.467 22.9057 130.394 22.9915 130.333 23.1139C130.271 23.2364 130.222 23.4078 130.186 23.6282C130.161 23.8364 130.149 24.1303 130.149 24.5099L130.156 24.7783Z" fill="#4A3244"/>
<path d="M123.335 28.2031C123.316 28.5006 123.232 28.7512 123.082 28.9549L122.947 29.1123C122.805 29.2615 122.641 29.3865 122.458 29.4876C122.213 29.61 121.943 29.6957 121.649 29.7447C121.368 29.7937 121.111 29.8182 120.878 29.8182L120.441 29.8086C120.31 29.8025 120.192 29.7937 120.088 29.7814C119.892 29.7569 119.739 29.6957 119.629 29.5978C119.519 29.4998 119.445 29.3529 119.409 29.1569C119.381 29.0009 119.364 28.8001 119.357 28.5547L119.353 28.2936C119.353 28.018 119.364 27.7837 119.385 27.5908L119.409 27.412C119.458 27.1793 119.543 26.9956 119.666 26.861C119.788 26.7263 119.96 26.6344 120.18 26.5854C120.4 26.5365 120.688 26.512 121.043 26.512C121.484 26.512 121.852 26.5609 122.145 26.6589L122.354 26.7285C122.552 26.8043 122.715 26.8977 122.843 27.0079L122.971 27.123C123.088 27.2424 123.174 27.3753 123.229 27.5222C123.303 27.7059 123.339 27.8896 123.339 28.0732L123.335 28.2031ZM111.897 24.5098C111.897 24.1084 111.91 23.7385 111.946 23.4336L111.951 23.3936L111.957 23.3535C112.006 23.0587 112.09 22.7024 112.258 22.3672L112.321 22.249C112.474 21.9786 112.715 21.6703 113.088 21.4414L113.087 21.4404C113.304 21.3046 113.531 21.2018 113.75 21.1221C114.059 21.0034 114.393 20.9457 114.642 20.9111C114.938 20.8587 115.251 20.8134 115.58 20.7754L115.588 20.7744C115.93 20.7364 116.264 20.711 116.591 20.6963C116.916 20.6703 117.214 20.6543 117.462 20.6543C118.266 20.6543 119.077 20.6605 119.893 20.6729C120.773 20.686 121.625 20.745 122.451 20.8516C123.325 20.9627 124.158 21.1581 124.949 21.4434C125.823 21.7452 126.61 22.1993 127.287 22.8105L127.286 22.8115C127.909 23.3631 128.394 24.0378 128.756 24.8027L128.905 25.1387C129.308 26.1112 129.473 27.2257 129.473 28.4219L129.465 28.8203C129.43 29.7321 129.27 30.5941 128.936 31.3643L128.938 31.3652C128.601 32.1683 128.128 32.8803 127.497 33.457L127.495 33.458C126.915 33.9871 126.248 34.3881 125.508 34.6572C124.87 34.889 124.22 35.0573 123.559 35.1602L123.541 35.1631L123.523 35.165C122.903 35.2477 122.291 35.29 121.686 35.29H120.957C120.966 35.4573 120.975 35.6308 120.984 35.8105L121.02 36.4854C121.034 36.7228 121.042 36.94 121.042 37.1289L121.031 37.4053C121.008 37.6993 120.94 38.0382 120.773 38.3711L120.47 38.9795L119.826 39.2021C119.385 39.3549 118.905 39.4609 118.401 39.5332L118.402 39.5342C118.401 39.5344 118.399 39.5339 118.397 39.5342L118.395 39.5352L118.394 39.5342C117.899 39.6067 117.398 39.6435 116.892 39.6436C116.427 39.6436 115.969 39.6157 115.519 39.5615C115.163 39.527 114.806 39.4682 114.466 39.3701L114.131 39.2588L113.679 39.0859L113.389 38.7002C113.099 38.3139 112.904 37.8838 112.783 37.4395C112.705 37.1625 112.649 36.8769 112.613 36.5869L112.583 36.2881C112.555 35.9346 112.541 35.5718 112.541 35.2002V34.1709C112.541 33.0563 112.566 31.9476 112.616 30.8447C112.664 29.7927 112.687 28.7337 112.687 27.6689V27.0381L112.613 26.9492L112.557 26.8789L112.508 26.8027C112.377 26.5976 112.272 26.3796 112.184 26.1631L112.103 25.9473C111.937 25.4769 111.897 24.9629 111.897 24.5098ZM113.568 24.5099C113.568 24.8895 113.604 25.1834 113.678 25.3915C113.751 25.5997 113.831 25.7711 113.917 25.9058C114.015 26.0283 114.106 26.1324 114.192 26.2181C114.278 26.3038 114.327 26.4018 114.339 26.512C114.364 26.7079 114.37 26.9038 114.357 27.0997V27.6691C114.357 28.759 114.333 29.8427 114.284 30.9202L114.252 31.7295C114.224 32.5399 114.211 33.3541 114.21 34.1714V35.2L114.22 35.6865C114.226 35.8458 114.235 36.002 114.247 36.1551C114.272 36.4612 114.321 36.7429 114.394 37C114.468 37.2694 114.578 37.5021 114.725 37.698C114.982 37.7959 115.3 37.8633 115.68 37.9C115.974 37.9367 116.274 37.9596 116.582 37.9688L116.892 37.9735C117.321 37.9735 117.743 37.9429 118.16 37.8817C118.481 37.8357 118.772 37.7757 119.031 37.7021L119.28 37.6245C119.326 37.5327 119.355 37.4163 119.366 37.2764L119.372 37.1286C119.372 36.9816 119.366 36.798 119.353 36.5775C119.341 36.3571 119.329 36.1306 119.317 35.8979L119.28 35.2C119.268 34.9795 119.262 34.7959 119.262 34.6489C119.262 34.4163 119.268 34.2326 119.28 34.0979C119.305 33.9632 119.347 33.8591 119.409 33.7856C119.464 33.7305 119.536 33.6925 119.626 33.6719L119.721 33.6571C119.868 33.6326 120.064 33.6203 120.309 33.6203H121.686L122.083 33.6133C122.349 33.6041 122.619 33.5862 122.892 33.5586L123.303 33.5101C123.716 33.4458 124.126 33.3509 124.532 33.2246L124.937 33.0877C125.409 32.9162 125.833 32.6743 126.211 32.3623L126.37 32.2244C126.799 31.8325 127.141 31.3305 127.399 30.7182C127.668 30.1059 127.803 29.3406 127.803 28.4222C127.803 27.5009 127.69 26.7106 127.465 26.0518L127.362 25.7772C127.105 25.1559 126.768 24.6378 126.351 24.2227L126.168 24.0507C125.729 23.6542 125.224 23.3419 124.653 23.1143L124.405 23.0221C123.815 22.8078 123.189 22.6496 122.524 22.5479L122.237 22.5078C121.668 22.4343 121.081 22.3846 120.477 22.3594L119.868 22.3425C119.464 22.3363 119.061 22.3322 118.66 22.3291L117.462 22.3241C117.278 22.3241 117.033 22.3363 116.727 22.3608C116.421 22.3731 116.102 22.3976 115.772 22.4343C115.453 22.471 115.159 22.5139 114.89 22.5629C114.621 22.5996 114.431 22.6425 114.321 22.6915C114.186 22.7404 114.07 22.7955 113.972 22.8568C113.886 22.9057 113.813 22.9915 113.751 23.1139C113.69 23.2364 113.641 23.4078 113.604 23.6282C113.58 23.8364 113.568 24.1303 113.568 24.5099Z" fill="#4A3244"/>
<path d="M103.536 21.04C103.908 21.04 104.306 21.0717 104.723 21.127C105.192 21.1876 105.655 21.2866 106.109 21.4229C106.615 21.5709 107.096 21.7776 107.547 22.0449C108.07 22.3366 108.525 22.7327 108.872 23.2432C108.875 23.247 108.878 23.251 108.881 23.2549C108.885 23.2605 108.889 23.2658 108.892 23.2715C109.234 23.7658 109.549 24.3324 109.843 24.959C110.136 25.5742 110.412 26.2388 110.671 26.9512C110.87 27.4751 111.062 28.0176 111.246 28.5791L111.431 29.1562C111.668 29.9187 111.886 30.6819 112.087 31.4453C112.303 32.2202 112.495 32.9846 112.661 33.7383C112.827 34.44 112.976 35.0983 113.109 35.7129C113.13 35.7945 113.148 35.8794 113.168 35.9658C113.263 36.2682 113.299 36.5951 113.257 36.9316L113.204 37.3506L112.958 37.6953C112.476 38.3697 111.691 38.6391 111.231 38.7705C110.694 38.9239 110.11 39.0305 109.487 39.0996C109.027 39.1518 108.56 39.1813 108.089 39.1865L107.614 39.1836C106.982 39.1696 106.379 39.1059 105.837 38.9658L104.988 38.7471L104.686 37.9238C104.628 37.7633 104.564 37.6022 104.497 37.4404L104.282 36.9531L104.277 36.9434L104.273 36.9346C104.132 36.6208 104.008 36.3085 103.903 35.999C103.835 35.9965 103.76 35.9938 103.681 35.9922L103.224 35.9883H102.573L102.53 35.9854C102.357 35.9763 102.194 35.9761 102.039 35.9844C101.991 36.1273 101.933 36.3015 101.862 36.5039C101.798 36.698 101.746 36.8628 101.707 37C101.659 37.1665 101.618 37.3128 101.584 37.4395L101.578 37.46L101.572 37.4795C101.531 37.6165 101.489 37.7493 101.446 37.877C101.368 38.1115 101.263 38.3355 101.132 38.5459L100.695 39.2441L99.8759 39.3232C99.3763 39.3716 98.8539 39.3609 98.3163 39.3066C98.3082 39.306 98.3 39.3053 98.2919 39.3047C98.2858 39.3041 98.2795 39.3044 98.2734 39.3037C97.7489 39.2604 97.2301 39.184 96.7177 39.0732C96.3404 39.0005 95.9747 38.9117 95.622 38.8057L95.2607 38.6895L95.245 38.6836C94.8386 38.5394 94.4349 38.3606 94.0761 38.127L93.9257 38.0234L93.2333 37.5234V36.6689L93.2392 36.459C93.2514 36.2495 93.2816 36.0435 93.3212 35.8457C93.3567 35.6566 93.3912 35.4674 93.4267 35.2783L93.4345 35.2402L93.4433 35.2031C93.4955 34.981 93.5478 34.7687 93.6015 34.5674L93.7235 34.0791C93.9097 33.2619 94.1312 32.3518 94.3876 31.3506L94.3905 31.3369C94.67 30.2828 94.9884 29.2358 95.3437 28.1953L95.3476 28.1836C95.7193 27.1196 96.1255 26.1126 96.5673 25.1641L96.5712 25.1553L96.5751 25.1475C97.0553 24.146 97.6146 23.2694 98.2743 22.5625C98.6326 22.1787 99.0627 21.9049 99.5087 21.7109L99.5321 21.7012C99.9278 21.5363 100.349 21.4128 100.787 21.3223C101.235 21.2178 101.698 21.1448 102.173 21.1016C102.627 21.0603 103.081 21.04 103.536 21.04ZM103.536 22.7098C103.132 22.7098 102.728 22.7282 102.324 22.7649C101.92 22.8017 101.534 22.8629 101.166 22.9486L100.897 23.0078C100.636 23.0721 100.395 23.1507 100.175 23.2425C99.893 23.3649 99.6664 23.518 99.495 23.7017L99.3046 23.916C98.8638 24.4357 98.4558 25.0867 98.0807 25.8691C97.6643 26.763 97.2786 27.7181 96.9235 28.7345C96.5806 29.7386 96.2745 30.7488 96.0051 31.7652C95.7479 32.7693 95.5275 33.6754 95.3439 34.4836C95.3071 34.6305 95.2643 34.802 95.2153 34.9979C95.1663 35.1816 95.1173 35.3775 95.0683 35.5857C95.0316 35.7816 94.9949 35.9775 94.9581 36.1734C94.9214 36.3571 94.903 36.5224 94.903 36.6694C95.1234 36.8286 95.4234 36.9755 95.803 37.1102C96.1949 37.2449 96.6174 37.3551 97.0704 37.4408C97.5235 37.5388 97.9827 37.6061 98.448 37.6429C98.9133 37.6919 99.3358 37.698 99.7154 37.6612C99.7766 37.5633 99.8256 37.4592 99.8623 37.349C99.8991 37.2388 99.9358 37.1225 99.9725 37L100.101 36.5408C100.15 36.3694 100.211 36.1734 100.285 35.953L100.487 35.3653L100.652 34.9979C100.701 34.8999 100.75 34.8203 100.799 34.7591C100.848 34.6857 100.903 34.6122 100.964 34.5387C101.026 34.4652 101.148 34.4163 101.332 34.3918C101.424 34.3734 101.52 34.3579 101.621 34.3457L101.938 34.3183C102.048 34.3122 102.16 34.3096 102.273 34.3096L102.618 34.3183H103.224C103.579 34.3183 103.879 34.3244 104.124 34.3367C104.381 34.3489 104.589 34.3856 104.748 34.4469C104.92 34.4959 105.054 34.5754 105.152 34.6857C105.262 34.7959 105.342 34.955 105.391 35.1632C105.489 35.5061 105.624 35.8673 105.795 36.2469C105.967 36.6143 106.12 36.9816 106.254 37.349C106.634 37.447 107.099 37.5021 107.65 37.5143C108.214 37.5265 108.765 37.5021 109.303 37.4408C109.854 37.3796 110.344 37.2878 110.773 37.1653C111.147 37.0583 111.405 36.9325 111.546 36.7881L111.599 36.7245C111.612 36.6265 111.599 36.5286 111.563 36.4306C111.538 36.3204 111.514 36.2163 111.489 36.1183C111.354 35.4938 111.201 34.8203 111.03 34.0979C110.871 33.3754 110.687 32.6407 110.479 31.8937C110.381 31.5203 110.278 31.1469 110.171 30.7734L109.836 29.6529C109.603 28.9059 109.359 28.1957 109.101 27.5222C108.856 26.8487 108.599 26.2303 108.33 25.667C108.061 25.0915 107.785 24.6017 107.503 24.1976C107.307 23.9037 107.038 23.6649 106.695 23.4813C106.447 23.3343 106.186 23.211 105.91 23.1123L105.63 23.0221C105.354 22.9394 105.075 22.8744 104.793 22.8262L104.509 22.7833C104.234 22.7465 103.982 22.724 103.755 22.7148L103.536 22.7098ZM103.297 27.1365C103.542 27.1365 103.75 27.2895 103.922 27.5957C104.105 27.9018 104.258 28.2569 104.381 28.661C104.503 29.0651 104.601 29.4631 104.675 29.8549L104.84 30.6631C104.865 30.7488 104.858 30.8284 104.822 30.9019C104.797 30.9631 104.73 31.0243 104.62 31.0856L104.526 31.1211C104.423 31.1555 104.289 31.1866 104.124 31.2141C103.916 31.2386 103.646 31.2509 103.315 31.2509L102.999 31.2559C102.892 31.2589 102.783 31.2631 102.673 31.2692L102.517 31.2637C102.36 31.2522 102.204 31.2233 102.048 31.1774C101.852 31.1284 101.785 30.9509 101.846 30.6447C101.883 30.4366 101.944 30.1427 102.03 29.7631C102.079 29.5675 102.13 29.3714 102.185 29.1758L102.36 28.5875C102.483 28.1957 102.624 27.8589 102.783 27.5773C102.942 27.2834 103.113 27.1365 103.297 27.1365Z" fill="#4A3244"/>
<path d="M87.1913 26.5693C87.6839 26.5445 88.1674 26.5376 88.6415 26.5508C88.8621 26.5567 89.07 26.5615 89.2675 26.5645L89.8261 26.5684C90.2351 26.5684 90.6255 26.5892 90.9882 26.6387L90.9872 26.6396C91.3162 26.6747 91.6608 26.7445 91.995 26.8789L92.1484 26.9463L92.7314 27.2178L92.9814 27.8105C93.12 28.1398 93.2302 28.494 93.3193 28.8623C93.3892 29.1422 93.4452 29.4295 93.4872 29.7236L93.5243 30.0195C93.5703 30.4335 93.5853 30.8518 93.5702 31.2734C93.5667 31.6867 93.527 32.0938 93.4443 32.4912L93.3427 32.9795L92.9902 33.332C92.853 33.4691 92.6191 33.6527 92.2958 33.7627C91.9585 33.9061 91.6069 34.0198 91.2431 34.1045L91.2441 34.1055C90.8667 34.196 90.4797 34.2627 90.0839 34.3066C89.7129 34.3479 89.3413 34.3749 88.9696 34.3887L88.9384 34.3896H86.4462C85.8613 34.3896 85.2913 34.3309 84.7411 34.2061H83.2148V32.9014C82.9828 32.2103 82.8585 31.4811 82.831 30.7236C82.8018 29.9199 82.867 29.1357 83.0341 28.376L83.205 27.5977L83.8612 27.2686C83.9203 27.2324 83.9713 27.2048 84.0097 27.1855L84.0536 27.1641L84.0985 27.1445C84.5957 26.9315 85.1266 26.7926 85.6777 26.7139C86.173 26.6312 86.6781 26.5832 87.1913 26.5693ZM88.5952 28.2202C88.1544 28.2079 87.7013 28.214 87.236 28.2385L86.8984 28.2539C86.5633 28.2746 86.2348 28.3121 85.9135 28.3671L85.6005 28.4209C85.2951 28.4829 85.0136 28.5692 84.7564 28.6794C84.7319 28.6916 84.7135 28.7039 84.7013 28.7161C84.7006 28.7164 84.6881 28.7227 84.6645 28.7345C84.5298 29.3467 84.4747 29.9896 84.4992 30.6631C84.5237 31.3366 84.64 31.955 84.8482 32.5182L84.8759 32.5225C84.8819 32.5254 84.8848 32.5307 84.8849 32.5366H84.94C85.2889 32.6284 85.6586 32.686 86.0487 32.709L86.4462 32.7203H88.9075L89.4032 32.6924C89.5686 32.6801 89.734 32.6652 89.8994 32.6468C90.23 32.6101 90.5484 32.555 90.8545 32.4815C91.0932 32.4264 91.318 32.3571 91.5292 32.2744L91.7361 32.1876C91.7606 32.1876 91.7851 32.1754 91.8096 32.1509C91.8708 31.857 91.9015 31.5448 91.9015 31.2141C91.9106 30.9571 91.906 30.7033 91.8876 30.4531L91.8647 30.2039C91.828 29.8733 91.7729 29.561 91.6994 29.2671C91.6259 28.961 91.5402 28.6916 91.4423 28.459C91.2586 28.3732 91.032 28.3181 90.7627 28.2936C90.6279 28.2753 90.4823 28.2611 90.3261 28.252L89.8259 28.2385C89.6423 28.2385 89.4481 28.2374 89.2431 28.2344L88.5952 28.2202Z" fill="#4A3244"/>
</svg>
