<svg width="30" height="29" viewBox="0 0 30 29" fill="none" xmlns="http://www.w3.org/2000/svg">
<path d="M16.6902 25.0391C16.1999 25.0391 15.731 24.8928 15.2834 24.6003C14.8357 24.3286 14.4627 23.9734 14.1643 23.5346C13.8872 23.0958 13.7486 22.657 13.7486 22.2182C13.7486 21.7167 13.9618 21.1838 14.3881 20.6197C14.8144 20.0555 15.3153 19.5017 15.8908 18.9585C16.4877 18.3943 17.0099 17.9137 17.4576 17.5167H4.25248C3.03749 17.5167 2.1742 17.4226 1.66262 17.2346C1.15105 17.0465 0.746049 16.7331 0.44763 16.2943C0.14921 15.8764 0 15.2913 0 14.5391C0 13.7868 0.138552 13.2017 0.415656 12.7838C0.714076 12.3659 1.11907 12.0525 1.63065 11.8435C2.14223 11.6555 3.01617 11.5615 4.25248 11.5615H17.4576L15.8908 10.0883C15.0169 9.2525 14.4414 8.61518 14.1643 8.17638C13.8872 7.71667 13.7486 7.27787 13.7486 6.85996C13.7486 6.42115 13.8872 5.98235 14.1643 5.54354C14.4414 5.10473 14.8037 4.74951 15.2514 4.47787C15.7203 4.18533 16.1999 4.03906 16.6902 4.03906C17.1165 4.03906 17.5748 4.17488 18.0651 4.44653C18.5553 4.69727 19.1308 5.13608 19.7916 5.76294L29 14.5391L19.9835 23.1271C19.2161 23.8376 18.5873 24.3286 18.097 24.6003C17.6068 24.8928 17.1378 25.0391 16.6902 25.0391Z" fill="white"/>
</svg>
